<svg xmlns="http://www.w3.org/2000/svg" version="1.1" xmlns:xlink="http://www.w3.org/1999/xlink" xmlns:svgjs="http://svgjs.dev/svgjs" width="2000" height="1500" viewBox="0 0 2000 1500"><rect width="2000" height="1500" fill="#060606"></rect><g transform="matrix(0.75,0,0,0.75,249.090909090909,623.4986878980045)"><svg viewBox="0 0 396 66" data-background-color="#060606" preserveAspectRatio="xMidYMid meet" height="333" width="2000" xmlns="http://www.w3.org/2000/svg" xmlns:xlink="http://www.w3.org/1999/xlink"><g id="tight-bounds" transform="matrix(1,0,0,1,0.2400000000000091,0.4297761710978989)"><svg viewBox="0 0 395.52 65.14044765780423" height="65.14044765780423" width="395.52"><g><svg viewBox="0 0 504.6665697987073 83.11641958590286" height="65.14044765780423" width="395.52"><g transform="matrix(1,0,0,1,109.1465697987073,13.99277513122761)"><svg viewBox="0 0 395.52 55.13086932344764" height="55.13086932344764" width="395.52"><g id="textblocktransform"><svg viewBox="0 0 395.52 55.13086932344764" height="55.13086932344764" width="395.52" id="textblock"><g><svg viewBox="0 0 395.52 55.13086932344764" height="55.13086932344764" width="395.52"><g transform="matrix(1,0,0,1,0,0)"><svg width="395.52" viewBox="4.08 -36.23 263.40000000000003 36.72" height="55.13086932344764" data-palette-color="#75db76"><path d="M25.88-7.54L25.88-7.54Q25.88-3.78 23.03-1.65 20.19 0.49 15.16 0.49L15.16 0.49Q10.13 0.49 7.51-1.09 4.88-2.66 4.08-6.05L4.08-6.05 7.96-6.81Q8.42-4.71 9.95-3.75 11.47-2.78 15.16-2.78L15.16-2.78Q21.75-2.78 21.75-6.96L21.75-6.96Q21.75-8.52 20.56-9.48 19.36-10.45 16.89-11.06L16.89-11.06Q10.45-12.65 8.72-13.55 6.98-14.45 6.05-15.81 5.13-17.16 5.13-19.19L5.13-19.19Q5.13-22.78 7.71-24.8 10.3-26.83 15.21-26.83L15.21-26.83Q19.51-26.83 22.07-25.21 24.63-23.58 25.27-20.48L25.27-20.48 21.31-20Q21.04-21.75 19.58-22.66 18.12-23.56 15.21-23.56L15.21-23.56Q9.23-23.56 9.23-19.87L9.23-19.87Q9.23-18.41 10.24-17.53 11.25-16.65 13.5-16.11L13.5-16.11 16.41-15.36Q20.39-14.38 22.13-13.43 23.88-12.48 24.88-11.05 25.88-9.62 25.88-7.54ZM38.74-22.95L34.64-22.95 34.64-26.42 38.79-26.42 40.21-33.3 43.14-33.3 43.14-26.42 53.68-26.42 53.68-22.95 43.14-22.95 43.14-7.03Q43.14-5.1 44.17-4.17 45.21-3.25 47.58-3.25L47.58-3.25Q50.85-3.25 54.83-4.08L54.83-4.08 54.83-0.73Q50.71 0.39 46.65 0.39L46.65 0.39Q42.7 0.39 40.72-1.28 38.74-2.95 38.74-6.57L38.74-6.57 38.74-22.95ZM86.71-12.28L67.87-12.28Q67.87-7.84 69.83-5.32 71.8-2.81 75.21-2.81L75.21-2.81Q77.73-2.81 79.62-3.89 81.51-4.98 82.15-6.86L82.15-6.86 86.01-5.76Q84.93-2.73 82.06-1.12 79.19 0.49 75.21 0.49L75.21 0.49Q69.45 0.49 66.35-3.1 63.25-6.69 63.25-13.38L63.25-13.38Q63.25-19.9 66.29-23.4 69.33-26.9 75.07-26.9L75.07-26.9Q80.81-26.9 83.76-23.41 86.71-19.92 86.71-12.87L86.71-12.87 86.71-12.28ZM75.12-23.66L75.12-23.66Q71.85-23.66 69.94-21.52 68.04-19.38 67.91-15.65L67.91-15.65 82.17-15.65Q81.49-23.66 75.12-23.66ZM107.98-36.23L107.98-3.47 117.25-3.47 117.25 0 93.28 0 93.28-3.47 103.58-3.47 103.58-32.76 96.53-32.76 96.53-36.23 107.98-36.23ZM137.98-36.23L137.98-3.47 147.26-3.47 147.26 0 123.28 0 123.28-3.47 133.58-3.47 133.58-32.76 126.53-32.76 126.53-36.23 137.98-36.23ZM154.53-26.42L158.92-26.42 158.92-9.67Q158.92-5.86 160.12-4.38 161.32-2.91 164.39-2.91L164.39-2.91Q167.54-2.91 169.37-5.05 171.2-7.2 171.2-11.11L171.2-11.11 171.2-26.42 175.62-26.42 175.62-5.64Q175.62-1.03 175.77 0L175.77 0 171.62 0Q171.59-0.12 171.57-0.66 171.55-1.2 171.51-1.89 171.47-2.59 171.42-4.52L171.42-4.52 171.35-4.52Q169.84-1.78 167.85-0.65 165.86 0.49 162.9 0.49L162.9 0.49Q158.56 0.49 156.54-1.67 154.53-3.83 154.53-8.81L154.53-8.81 154.53-26.42ZM205.89-7.54L205.89-7.54Q205.89-3.78 203.05-1.65 200.2 0.49 195.18 0.49L195.18 0.49Q190.15 0.49 187.52-1.09 184.9-2.66 184.09-6.05L184.09-6.05 187.97-6.81Q188.44-4.71 189.96-3.75 191.49-2.78 195.18-2.78L195.18-2.78Q201.77-2.78 201.77-6.96L201.77-6.96Q201.77-8.52 200.57-9.48 199.37-10.45 196.91-11.06L196.91-11.06Q190.46-12.65 188.73-13.55 187-14.45 186.07-15.81 185.14-17.16 185.14-19.19L185.14-19.19Q185.14-22.78 187.73-24.8 190.32-26.83 195.22-26.83L195.22-26.83Q199.52-26.83 202.08-25.21 204.65-23.58 205.28-20.48L205.28-20.48 201.33-20Q201.06-21.75 199.59-22.66 198.13-23.56 195.22-23.56L195.22-23.56Q189.24-23.56 189.24-19.87L189.24-19.87Q189.24-18.41 190.26-17.53 191.27-16.65 193.52-16.11L193.52-16.11 196.42-15.36Q200.4-14.38 202.15-13.43 203.89-12.48 204.89-11.05 205.89-9.62 205.89-7.54ZM236.9-2.71L236.9-2.71Q237.53-2.71 238.34-2.88L238.34-2.88 238.34-0.15Q236.68 0.24 234.94 0.24L234.94 0.24Q232.5 0.24 231.39-1.04 230.28-2.32 230.13-5.05L230.13-5.05 229.99-5.05Q228.4-2.1 226.24-0.81 224.08 0.49 220.91 0.49L220.91 0.49Q217.05 0.49 215.09-1.61 213.14-3.71 213.14-7.37L213.14-7.37Q213.14-15.89 224.23-16.02L224.23-16.02 229.99-16.11 229.99-17.55Q229.99-20.75 228.69-22.16 227.4-23.56 224.57-23.56L224.57-23.56Q221.69-23.56 220.42-22.53 219.15-21.51 218.9-19.36L218.9-19.36 214.31-19.78Q215.44-26.9 224.64-26.9L224.64-26.9Q229.52-26.9 231.98-24.62 234.43-22.34 234.43-18.02L234.43-18.02 234.43-6.64Q234.43-4.69 234.94-3.7 235.46-2.71 236.9-2.71ZM222.03-2.86L222.03-2.86Q224.37-2.86 226.18-3.98 227.99-5.1 228.99-6.98 229.99-8.86 229.99-10.86L229.99-10.86 229.99-13.04 225.35-12.94Q222.47-12.89 220.95-12.3 219.44-11.72 218.6-10.51 217.76-9.3 217.76-7.3L217.76-7.3Q217.76-5.3 218.84-4.08 219.93-2.86 222.03-2.86ZM258.21-26.42L258.21-3.47 267.48-3.47 267.48 0 243.51 0 243.51-3.47 253.81-3.47 253.81-22.95 246.02-22.95 246.02-26.42 258.21-26.42ZM258.21-31.54L253.32-31.54 253.32-36.23 258.21-36.23 258.21-31.54Z" opacity="1" transform="matrix(1,0,0,1,0,0)" fill="#75db76" class="wordmark-text-0" data-fill-palette-color="primary" id="text-0"></path></svg></g></svg></g></svg></g></svg></g><g><svg viewBox="0 0 83.11641958590286 83.11641958590286" height="83.11641958590286" width="83.11641958590286"><g><svg></svg></g><g id="icon-0"><svg viewBox="0 0 83.11641958590286 83.11641958590286" height="83.11641958590286" width="83.11641958590286"><g><path d="M0 41.558c0-22.952 18.606-41.558 41.558-41.558 22.952 0 41.558 18.606 41.558 41.558 0 22.952-18.606 41.558-41.558 41.558-22.952 0-41.558-18.606-41.558-41.558zM41.558 78.145c20.206 0 36.586-16.38 36.587-36.587 0-20.206-16.38-36.586-36.587-36.586-20.206 0-36.586 16.38-36.586 36.586 0 20.206 16.38 36.586 36.586 36.587z" data-fill-palette-color="tertiary" fill="#b9d0b5" stroke="transparent"></path></g><g transform="matrix(1,0,0,1,29.807543669284712,21.30495196515711)"><svg viewBox="0 0 23.501332247333433 40.50651565558864" height="40.50651565558864" width="23.501332247333433"><g><svg xmlns="http://www.w3.org/2000/svg" xmlns:xlink="http://www.w3.org/1999/xlink" version="1.1" x="0" y="0" viewBox="21.679106830508616 1 56.85827385947762 98" enable-background="new 0 0 100 100" xml:space="preserve" height="40.50651565558864" width="23.501332247333433" class="icon-dxe-0" data-fill-palette-color="accent" id="dxe-0"><g fill="#b568d7" data-fill-palette-color="accent"><path fill-rule="evenodd" clip-rule="evenodd" d="M30.545 28.822C29.38 36.039 30.875 43.672 37.045 47.863 30.758 19.81 45.756 8.664 59.646 1 43.466 24.046 76.542 24.644 78.423 51.13 80.028 73.71 64.507 91.317 46.639 99 46.845 76.175 24.089 73.067 21.801 54.397 20.905 47.094 25.062 33.766 30.545 28.822" fill="#b568d7" data-fill-palette-color="accent"></path></g></svg></g></svg></g></svg></g></svg></g></svg></g><defs></defs></svg><rect width="395.52" height="65.14044765780423" fill="none" stroke="none" visibility="hidden"></rect></g></svg></g></svg>