<?xml version="1.0" encoding="UTF-8"?>
<!DOCTYPE svg PUBLIC "-//W3C//DTD SVG 1.1//EN" "http://www.w3.org/Graphics/SVG/1.1/DTD/svg11.dtd">
<svg xmlns="http://www.w3.org/2000/svg" version="1.1" width="1024px" height="1024px" style="shape-rendering:geometricPrecision; text-rendering:geometricPrecision; image-rendering:optimizeQuality; fill-rule:evenodd; clip-rule:evenodd" xmlns:xlink="http://www.w3.org/1999/xlink">
<g><path style="opacity:1" fill="#ebebeb" d="M -0.5,-0.5 C 340.833,-0.5 682.167,-0.5 1023.5,-0.5C 1023.5,340.833 1023.5,682.167 1023.5,1023.5C 682.167,1023.5 340.833,1023.5 -0.5,1023.5C -0.5,682.167 -0.5,340.833 -0.5,-0.5 Z"/></g>
<g><path style="opacity:1" fill="#677d94" d="M 512.5,200.5 C 512.5,202.833 512.5,205.167 512.5,207.5C 511.833,207.167 511.167,206.833 510.5,206.5C 510.5,204.833 510.5,203.167 510.5,201.5C 511.167,201.167 511.833,200.833 512.5,200.5 Z"/></g>
<g><path style="opacity:1" fill="#243540" d="M 494.5,318.5 C 493.5,318.5 492.5,318.5 491.5,318.5C 491.83,299.992 491.497,281.659 490.5,263.5C 486.243,257.738 481.41,252.405 476,247.5C 475.5,239.507 475.334,231.507 475.5,223.5C 467.919,220.994 465.752,215.994 469,208.5C 472.854,204.329 477.354,203.496 482.5,206C 488.239,212.734 487.406,218.567 480,223.5C 479.333,231.167 479.333,238.833 480,246.5C 484.667,251.167 489.333,255.833 494,260.5C 494.5,279.83 494.667,299.164 494.5,318.5 Z"/></g>
<g><path style="opacity:1" fill="#e1e4e4" d="M 474.5,207.5 C 480.653,207.484 483.486,210.484 483,216.5C 479.645,221.31 475.979,221.644 472,217.5C 470.861,213.579 471.695,210.246 474.5,207.5 Z"/></g>
<g><path style="opacity:1" fill="#2e3f48" d="M 519.5,317.5 C 520.151,301.797 519.484,286.464 517.5,271.5C 517.83,250.993 517.497,230.66 516.5,210.5C 514.596,210.262 513.262,209.262 512.5,207.5C 512.5,205.167 512.5,202.833 512.5,200.5C 516.767,196.446 520.934,196.779 525,201.5C 526.059,205.381 524.892,208.381 521.5,210.5C 520.833,246.331 520.167,281.998 519.5,317.5 Z"/></g>
<g><path style="opacity:1" fill="#e3ebee" d="M 515.5,201.5 C 520.123,200.408 521.956,202.075 521,206.5C 516.325,208.334 514.492,206.667 515.5,201.5 Z"/></g>
<g><path style="opacity:1" fill="#3d505a" d="M 516.5,210.5 C 517.497,230.66 517.83,250.993 517.5,271.5C 516.849,287.203 517.516,302.536 519.5,317.5C 518.791,318.404 517.791,318.737 516.5,318.5C 516.5,282.5 516.5,246.5 516.5,210.5 Z"/></g>
<g><path style="opacity:1" fill="#21333e" d="M 559.5,257.5 C 554.52,262.145 549.52,266.812 544.5,271.5C 543.501,288.153 543.167,304.82 543.5,321.5C 542.5,321.5 541.5,321.5 540.5,321.5C 540.333,304.497 540.5,287.497 541,270.5C 547.333,264.167 553.667,257.833 560,251.5C 558.916,243.59 562.416,240.424 570.5,242C 574.5,246 574.5,250 570.5,254C 567.901,254.769 565.401,254.602 563,253.5C 561.624,254.705 560.458,256.038 559.5,257.5 Z"/></g>
<g><path style="opacity:1" fill="#dde3e9" d="M 565.5,244.5 C 569.473,245.075 570.473,247.242 568.5,251C 563.382,250.824 562.382,248.658 565.5,244.5 Z"/></g>
<g><path style="opacity:1" fill="#1f303b" d="M 541.5,204.5 C 552.436,204.254 556.269,209.254 553,219.5C 551.587,221.414 549.753,222.747 547.5,223.5C 546.668,231.813 546.168,240.147 546,248.5C 541.333,253.167 536.667,257.833 532,262.5C 531.5,281.497 531.333,300.497 531.5,319.5C 530.5,319.5 529.5,319.5 528.5,319.5C 528.333,299.831 528.5,280.164 529,260.5C 533.667,255.833 538.333,251.167 543,246.5C 543.831,238.812 543.665,231.145 542.5,223.5C 533.582,217.587 533.248,211.254 541.5,204.5 Z"/></g>
<g><path style="opacity:1" fill="#dfe5e7" d="M 543.5,207.5 C 551.036,208.241 553.036,211.908 549.5,218.5C 546.097,221.199 542.93,220.866 540,217.5C 538.581,213.082 539.748,209.749 543.5,207.5 Z"/></g>
<g><path style="opacity:1" fill="#2a3a46" d="M 482.5,319.5 C 481.817,321.176 480.483,321.843 478.5,321.5C 478.667,304.83 478.5,288.163 478,271.5C 477.617,270.944 477.117,270.611 476.5,270.5C 471.37,264.869 466.036,259.369 460.5,254C 452.253,256.087 448.753,252.92 450,244.5C 458.399,238.868 462.732,241.201 463,251.5C 469.279,257.779 475.613,264.113 482,270.5C 482.5,286.83 482.667,303.163 482.5,319.5 Z"/></g>
<g><path style="opacity:1" fill="#e2dee4" d="M 454.5,244.5 C 458.701,244.426 460.035,246.259 458.5,250C 452.546,251.227 451.212,249.394 454.5,244.5 Z"/></g>
<g><path style="opacity:1" fill="#3f4f5c" d="M 510.5,201.5 C 510.5,203.167 510.5,204.833 510.5,206.5C 510.238,208.564 509.071,209.897 507,210.5C 506.833,246.336 506.333,282.002 505.5,317.5C 505.667,281.832 505.5,246.165 505,210.5C 503.52,246.105 503.02,281.772 503.5,317.5C 502.833,281.998 502.167,246.331 501.5,210.5C 497.689,207.803 496.689,204.303 498.5,200C 503.145,196.277 507.145,196.777 510.5,201.5 Z"/></g>
<g><path style="opacity:1" fill="#132536" d="M 505.5,317.5 C 504.833,317.5 504.167,317.5 503.5,317.5C 503.02,281.772 503.52,246.105 505,210.5C 505.5,246.165 505.667,281.832 505.5,317.5 Z"/></g>
<g><path style="opacity:1" fill="#dbdfe0" d="M 501.5,201.5 C 506.123,200.408 507.956,202.075 507,206.5C 502.325,208.334 500.492,206.667 501.5,201.5 Z"/></g>
<g><path style="opacity:1" fill="#21333b" d="M 590.5,274.5 C 583.14,281.528 575.807,288.528 568.5,295.5C 567.505,306.654 567.172,317.988 567.5,329.5C 566.5,329.5 565.5,329.5 564.5,329.5C 564.333,317.495 564.5,305.495 565,293.5C 572.803,286.698 580.303,279.531 587.5,272C 589.489,271.481 590.489,272.314 590.5,274.5 Z"/></g>
<g><path style="opacity:1" fill="#263643" d="M 460.5,271.5 C 463.808,274.471 467.141,277.471 470.5,280.5C 470.829,295.343 470.496,310.01 469.5,324.5C 467.839,310.362 466.839,296.029 466.5,281.5C 459.221,275.558 452.221,269.225 445.5,262.5C 446.348,260.717 447.681,260.217 449.5,261C 453.036,264.704 456.702,268.204 460.5,271.5 Z"/></g>
<g><path style="opacity:1" fill="#8a99a4" d="M 490.5,263.5 C 491.497,281.659 491.83,299.992 491.5,318.5C 492.5,318.5 493.5,318.5 494.5,318.5C 493.432,319.434 492.099,319.768 490.5,319.5C 490.5,300.833 490.5,282.167 490.5,263.5 Z"/></g>
<g><path style="opacity:1" fill="#2b3842" d="M 458.5,294.5 C 458.828,306.345 458.495,318.012 457.5,329.5C 455.841,318.37 454.841,307.037 454.5,295.5C 452.833,294.167 451.167,292.833 449.5,291.5C 444.203,285.702 438.703,280.035 433,274.5C 432.399,273.035 432.899,272.035 434.5,271.5C 442.958,278.722 450.958,286.388 458.5,294.5 Z"/></g>
<g><path style="opacity:1" fill="#58656e" d="M 466.5,281.5 C 466.839,296.029 467.839,310.362 469.5,324.5C 468.791,325.404 467.791,325.737 466.5,325.5C 466.5,310.833 466.5,296.167 466.5,281.5 Z"/></g>
<g><path style="opacity:1" fill="#2e3d49" d="M 575.5,264.5 C 569.081,269.81 562.914,275.477 557,281.5C 556.5,296.163 556.333,310.83 556.5,325.5C 555.178,325.67 554.011,325.337 553,324.5C 552.167,309.489 552.334,294.489 553.5,279.5C 556.545,276.782 559.545,274.116 562.5,271.5C 566.298,268.204 569.964,264.704 573.5,261C 576.332,260.826 576.999,261.993 575.5,264.5 Z"/></g>
<g><path style="opacity:1" fill="#25343e" d="M 433.5,303.5 C 437.463,307.964 441.63,312.298 446,316.5C 446.667,322.5 446.667,328.5 446,334.5C 445.617,335.056 445.117,335.389 444.5,335.5C 442.705,329.916 441.871,323.916 442,317.5C 435.167,310.667 428.333,303.833 421.5,297C 413.003,297.345 410.003,293.511 412.5,285.5C 421.663,281.666 425.496,284.666 424,294.5C 427.036,297.704 430.203,300.704 433.5,303.5 Z"/></g>
<g><path style="opacity:1" fill="#ced8de" d="M 415.5,286.5 C 420.328,286.385 421.661,288.552 419.5,293C 414.791,293.082 413.458,290.915 415.5,286.5 Z"/></g>
<g><path style="opacity:1" fill="#22353e" d="M 580.5,317.5 C 580.147,323.735 579.147,329.735 577.5,335.5C 576.51,329.355 576.177,323.022 576.5,316.5C 583.803,309.366 591.303,302.366 599,295.5C 599.292,293.674 599.125,291.841 598.5,290C 599.289,284.768 602.289,282.768 607.5,284C 611.124,286.161 612.291,289.328 611,293.5C 608.269,296.712 604.769,298.212 600.5,298C 593.938,304.73 587.271,311.23 580.5,317.5 Z"/></g>
<g><path style="opacity:1" fill="#dce0e5" d="M 603.5,287.5 C 608.587,287.284 609.587,289.118 606.5,293C 602.537,293.118 601.537,291.284 603.5,287.5 Z"/></g>
<g><path style="opacity:1" fill="#969fa6" d="M 568.5,295.5 C 568.5,307.167 568.5,318.833 568.5,330.5C 566.901,330.768 565.568,330.434 564.5,329.5C 565.5,329.5 566.5,329.5 567.5,329.5C 567.172,317.988 567.505,306.654 568.5,295.5 Z"/></g>
<g><path style="opacity:1" fill="#23313b" d="M 433.5,339.5 C 434.091,340.151 434.757,340.818 435.5,341.5C 434.757,342.182 434.091,342.849 433.5,343.5C 423.754,335.258 414.421,326.425 405.5,317C 397.909,318.41 394.409,315.244 395,307.5C 398.453,304.231 402.286,303.731 406.5,306C 408.541,308.642 409.041,311.475 408,314.5C 416.449,323.118 424.949,331.451 433.5,339.5 Z"/></g>
<g><path style="opacity:1" fill="#ccd6dc" d="M 399.5,307.5 C 404.747,307.64 405.747,309.806 402.5,314C 401.216,314.684 400.049,314.517 399,313.5C 398.322,311.402 398.489,309.402 399.5,307.5 Z"/></g>
<g><path style="opacity:1" fill="#24323e" d="M 617.5,304.5 C 627.82,304.411 630.154,308.578 624.5,317C 621.833,317.333 619.167,317.667 616.5,318C 607.503,325.997 598.837,334.33 590.5,343C 588.333,343.5 587.5,342.667 588,340.5C 596.97,332.531 605.637,324.197 614,315.5C 613.799,311.271 614.966,307.604 617.5,304.5 Z"/></g>
<g><path style="opacity:1" fill="#d5dede" d="M 618.5,308.5 C 620.199,308.34 621.866,308.506 623.5,309C 624.813,312.692 623.48,314.359 619.5,314C 617.365,312.444 617.032,310.611 618.5,308.5 Z"/></g>
<g><path style="opacity:1" fill="#e2e8eb" d="M 559.5,257.5 C 557.636,262.615 554.302,266.615 549.5,269.5C 550.63,272.613 551.13,275.613 551,278.5C 552.42,276.578 554.253,275.245 556.5,274.5C 557.015,272.775 557.682,271.108 558.5,269.5C 559.524,270.853 560.857,271.52 562.5,271.5C 559.545,274.116 556.545,276.782 553.5,279.5C 552.334,294.489 552.167,309.489 553,324.5C 554.011,325.337 555.178,325.67 556.5,325.5C 556.333,310.83 556.5,296.163 557,281.5C 562.914,275.477 569.081,269.81 575.5,264.5C 572.523,268.325 569.689,272.325 567,276.5C 564.733,281.173 566.233,283.006 571.5,282C 572.833,281.333 572.833,280.667 571.5,280C 573.279,280.979 574.945,280.646 576.5,279C 579.312,276.099 582.312,273.432 585.5,271C 587.899,270.289 590.232,270.456 592.5,271.5C 593.583,272.365 593.749,273.365 593,274.5C 592.667,273.833 592.333,273.167 592,272.5C 591.722,273.416 591.222,274.082 590.5,274.5C 590.489,272.314 589.489,271.481 587.5,272C 580.303,279.531 572.803,286.698 565,293.5C 564.5,305.495 564.333,317.495 564.5,329.5C 563.669,317.674 563.169,305.674 563,293.5C 562,294.833 561,294.833 560,293.5C 559.818,290.774 559.318,288.107 558.5,285.5C 558.167,286.833 557.833,288.167 557.5,289.5C 558.147,301.473 558.814,313.14 559.5,324.5C 557.833,327.833 556.167,331.167 554.5,334.5C 557.066,335.547 559.733,336.214 562.5,336.5C 566.375,336.694 570.375,336.361 574.5,335.5C 574.221,332.882 573.554,330.382 572.5,328C 573.428,327.612 574.095,326.945 574.5,326C 575.05,322.676 575.717,319.509 576.5,316.5C 576.177,323.022 576.51,329.355 577.5,335.5C 577.5,335.833 577.5,336.167 577.5,336.5C 576.262,336.81 576.262,337.31 577.5,338C 576.833,338.167 576.167,338.333 575.5,338.5C 571.909,336.88 568.576,337.213 565.5,339.5C 567.113,340.427 568.779,341.261 570.5,342C 569.944,342.383 569.611,342.883 569.5,343.5C 530.991,325.192 492.324,324.858 453.5,342.5C 452.856,339.196 450.856,337.862 447.5,338.5C 447.5,339.833 447.5,341.167 447.5,342.5C 444.751,342.726 442.084,342.393 439.5,341.5C 437.827,343.086 435.827,343.753 433.5,343.5C 434.091,342.849 434.757,342.182 435.5,341.5C 434.757,340.818 434.091,340.151 433.5,339.5C 436.119,339.768 438.619,339.435 441,338.5C 441.483,339.448 441.649,340.448 441.5,341.5C 442.552,341.649 443.552,341.483 444.5,341C 443.248,339.172 443.248,337.339 444.5,335.5C 445.117,335.389 445.617,335.056 446,334.5C 446.667,328.5 446.667,322.5 446,316.5C 441.63,312.298 437.463,307.964 433.5,303.5C 434.833,303.5 436.167,303.5 437.5,303.5C 437.281,304.675 437.614,305.675 438.5,306.5C 440.225,307.015 441.892,307.682 443.5,308.5C 444.414,310.664 445.581,312.664 447,314.5C 447.5,321.492 447.666,328.492 447.5,335.5C 449.833,335.5 452.167,335.5 454.5,335.5C 453.748,323.192 453.248,310.858 453,298.5C 451.733,296.186 450.566,293.852 449.5,291.5C 451.167,292.833 452.833,294.167 454.5,295.5C 454.5,307.167 454.5,318.833 454.5,330.5C 455.791,330.737 456.791,330.404 457.5,329.5C 458.495,318.012 458.828,306.345 458.5,294.5C 459.117,294.611 459.617,294.944 460,295.5C 460.813,307.879 460.646,320.213 459.5,332.5C 460.077,334.55 461.41,335.55 463.5,335.5C 463.338,333.473 463.505,331.473 464,329.5C 466.016,330.955 466.849,332.955 466.5,335.5C 468.308,335.509 469.975,335.009 471.5,334C 473.211,331.411 475.045,328.911 477,326.5C 477.554,311.137 477.054,295.804 475.5,280.5C 474.914,280.291 474.414,279.957 474,279.5C 473.08,282.101 472.413,284.768 472,287.5C 471.888,284.366 471.388,282.033 470.5,280.5C 467.141,277.471 463.808,274.471 460.5,271.5C 462.167,271.5 463.833,271.5 465.5,271.5C 465.5,272.5 465.5,273.5 465.5,274.5C 467.262,274.357 468.929,274.691 470.5,275.5C 471.679,272.827 473.679,271.16 476.5,270.5C 477.117,270.611 477.617,270.944 478,271.5C 478.5,288.163 478.667,304.83 478.5,321.5C 480.483,321.843 481.817,321.176 482.5,319.5C 484.158,303.854 485.158,287.854 485.5,271.5C 486.666,288.49 486.833,305.49 486,322.5C 485.586,322.043 485.086,321.709 484.5,321.5C 483.193,322.816 481.693,323.816 480,324.5C 479.505,326.473 479.338,328.473 479.5,330.5C 486.463,327.509 493.796,326.175 501.5,326.5C 511.082,326.819 520.582,327.485 530,328.5C 530.333,328.167 530.667,327.833 531,327.5C 537.414,329.46 543.914,331.126 550.5,332.5C 550.106,330.576 550.773,328.743 552.5,327C 550.934,325.316 549.934,323.316 549.5,321C 550.638,308.533 550.804,296.033 550,283.5C 549.363,281.697 548.197,280.364 546.5,279.5C 545.686,277.234 545.186,274.9 545,272.5C 544.831,289.005 544.331,305.338 543.5,321.5C 543.167,304.82 543.501,288.153 544.5,271.5C 549.52,266.812 554.52,262.145 559.5,257.5 Z"/></g>
<g><path style="opacity:1" fill="#6c757c" d="M 454.5,295.5 C 454.841,307.037 455.841,318.37 457.5,329.5C 456.791,330.404 455.791,330.737 454.5,330.5C 454.5,318.833 454.5,307.167 454.5,295.5 Z"/></g>
<g><path style="opacity:1" fill="#11263d" d="M 517.5,271.5 C 519.484,286.464 520.151,301.797 519.5,317.5C 517.516,302.536 516.849,287.203 517.5,271.5 Z"/></g>
<g><path style="opacity:1" fill="#8c959b" d="M 580.5,317.5 C 580.5,323.833 580.5,330.167 580.5,336.5C 579.5,336.5 578.5,336.5 577.5,336.5C 577.5,336.167 577.5,335.833 577.5,335.5C 579.147,329.735 580.147,323.735 580.5,317.5 Z"/></g>
<g><path style="opacity:1" fill="#23363f" d="M 376.5,320.5 C 383.796,320.364 386.962,324.031 386,331.5C 395.03,340.864 404.363,349.864 414,358.5C 414.5,360.667 413.667,361.5 411.5,361C 401.863,352.364 392.53,343.364 383.5,334C 375.957,335.461 372.457,332.295 373,324.5C 374.376,323.295 375.542,321.962 376.5,320.5 Z"/></g>
<g><path style="opacity:1" fill="#e6e1eb" d="M 377.5,324.5 C 382.159,324.015 383.492,325.848 381.5,330C 376.728,330.81 375.395,328.977 377.5,324.5 Z"/></g>
<g><path style="opacity:1" fill="#243541" d="M 612.5,360.5 C 610.77,361.976 609.437,361.642 608.5,359.5C 609.524,358.148 610.524,356.815 611.5,355.5C 620.21,347.774 628.71,339.774 637,331.5C 635.485,324.356 638.318,320.856 645.5,321C 649.894,324.431 650.561,328.431 647.5,333C 644.911,334.657 642.244,334.991 639.5,334C 629.995,342.339 620.995,351.172 612.5,360.5 Z"/></g>
<g><path style="opacity:1" fill="#e8e7e4" d="M 641.5,324.5 C 646.159,324.015 647.492,325.848 645.5,330C 640.728,330.81 639.395,328.977 641.5,324.5 Z"/></g>
<g><path style="opacity:1" fill="#273642" d="M 376.5,368.5 C 385.713,368.844 394.713,369.844 403.5,371.5C 394.009,372.658 384.342,372.825 374.5,372C 363.25,360.744 351.416,350.244 339,340.5C 333.784,342.267 332.45,345.601 335,350.5C 345.167,360 355.333,369.5 365.5,379C 375.752,380.121 386.085,380.954 396.5,381.5C 396.023,382.478 395.357,383.311 394.5,384C 384.833,384.667 375.167,384.667 365.5,384C 354.512,373.402 343.346,362.902 332,352.5C 328.715,340.789 332.882,336.289 344.5,339C 355.037,349.039 365.703,358.873 376.5,368.5 Z"/></g>
<g><path style="opacity:1" fill="#1c303e" d="M 569.5,343.5 C 571.938,345.267 574.605,346.601 577.5,347.5C 612.244,370.632 632.578,402.965 638.5,444.5C 638.642,453.524 638.308,462.524 637.5,471.5C 631.271,511.448 611.271,542.615 577.5,565C 543.317,584.933 507.317,589.1 469.5,577.5C 411.339,552.567 382.839,508.234 384,444.5C 390.545,399.048 413.712,365.048 453.5,342.5C 492.324,324.858 530.991,325.192 569.5,343.5 Z"/></g>
<g><path style="opacity:1" fill="#22303d" d="M 358.5,392.5 C 368.708,392.842 378.708,393.842 388.5,395.5C 378.008,396.659 367.341,396.825 356.5,396C 346.359,385.77 336.026,375.77 325.5,366C 318.5,365.333 311.5,365.333 304.5,366C 302.066,371.719 297.733,374.052 291.5,373C 285.975,370.081 284.142,365.581 286,359.5C 286.465,358.069 287.299,356.903 288.5,356C 294.714,353.123 299.88,354.29 304,359.5C 304.483,360.448 304.649,361.448 304.5,362.5C 312.174,362.334 319.841,362.5 327.5,363C 337.4,373.403 347.733,383.236 358.5,392.5 Z"/></g>
<g><path style="opacity:1" fill="#e3e6eb" d="M 291.5,357.5 C 298.827,356.329 301.994,359.329 301,366.5C 297,370.5 293,370.5 289,366.5C 287.927,362.9 288.76,359.9 291.5,357.5 Z"/></g>
<g><path style="opacity:1" fill="#2a3946" d="M 685.5,357.5 C 675.704,366.127 666.037,374.96 656.5,384C 646.483,384.832 636.483,384.666 626.5,383.5C 626.167,382.833 625.833,382.167 625.5,381.5C 635.483,380.668 645.483,380.168 655.5,380C 666,370.167 676.5,360.333 687,350.5C 689.385,346.543 688.552,343.376 684.5,341C 683.167,340.333 681.833,340.333 680.5,341C 669.529,350.97 658.863,361.303 648.5,372C 638.833,372.667 629.167,372.667 619.5,372C 618.643,371.311 617.977,370.478 617.5,369.5C 627.659,368.833 637.659,368.167 647.5,367.5C 657.945,357.441 668.611,347.608 679.5,338C 688.987,337.495 692.82,341.995 691,351.5C 688.96,353.37 687.127,355.37 685.5,357.5 Z"/></g>
<g><path style="opacity:1" fill="#1f2d39" d="M 673.5,389.5 C 670.437,391.051 667.771,393.218 665.5,396C 655.167,396.667 644.833,396.667 634.5,396C 634.043,395.586 633.709,395.086 633.5,394.5C 643.483,393.668 653.483,393.168 663.5,393C 674.365,382.967 685.032,372.8 695.5,362.5C 703.167,362.5 710.833,362.5 718.5,362.5C 719,356.843 722.166,354.176 728,354.5C 737.06,355.926 739.727,360.926 736,369.5C 729.958,375.119 724.291,374.785 719,368.5C 718.517,367.552 718.351,366.552 718.5,365.5C 711.159,365.334 703.826,365.5 696.5,366C 688.658,373.675 680.992,381.508 673.5,389.5 Z"/></g>
<g><path style="opacity:1" fill="#dfe5e9" d="M 724.5,357.5 C 733.306,357.464 735.639,361.297 731.5,369C 727.543,371.385 724.376,370.552 722,366.5C 720.927,362.9 721.76,359.9 724.5,357.5 Z"/></g>
<g><path style="opacity:1" fill="#505c64" d="M 376.5,368.5 C 385.833,368.5 395.167,368.5 404.5,368.5C 404.737,369.791 404.404,370.791 403.5,371.5C 394.713,369.844 385.713,368.844 376.5,368.5 Z"/></g>
<g><path style="opacity:1" fill="#e6e9ea" d="M 685.5,357.5 C 686.32,359.14 687.153,360.807 688,362.5C 688.483,361.552 688.649,360.552 688.5,359.5C 691.453,359.15 693.787,360.15 695.5,362.5C 685.032,372.8 674.365,382.967 663.5,393C 653.483,393.168 643.483,393.668 633.5,394.5C 633.709,395.086 634.043,395.586 634.5,396C 644.833,396.667 655.167,396.667 665.5,396C 667.771,393.218 670.437,391.051 673.5,389.5C 675.196,389.685 676.529,390.519 677.5,392C 676.833,392.333 676.167,392.667 675.5,393C 676.766,393.309 677.933,393.809 679,394.5C 679.601,391.794 681.101,389.794 683.5,388.5C 682.17,385.151 682.67,384.818 685,387.5C 686.399,386.773 687.899,386.273 689.5,386C 690.945,382.757 692.611,379.59 694.5,376.5C 696.071,377.309 697.738,377.643 699.5,377.5C 699.5,378.5 699.5,379.5 699.5,380.5C 696.397,382.423 693.397,384.59 690.5,387C 684.631,393.036 678.631,398.87 672.5,404.5C 661.167,404.5 649.833,404.5 638.5,404.5C 638.263,405.791 638.596,406.791 639.5,407.5C 650.659,408.659 661.992,408.826 673.5,408C 682.037,399.96 690.704,392.126 699.5,384.5C 700.239,384.369 700.906,384.536 701.5,385C 697.931,388.065 694.931,391.565 692.5,395.5C 690.929,396.309 689.262,396.643 687.5,396.5C 686.572,399.13 685.572,401.796 684.5,404.5C 684.637,406.107 685.304,407.441 686.5,408.5C 687.216,406.518 688.383,404.851 690,403.5C 691.147,404.458 692.147,404.125 693,402.5C 693.717,403.044 694.217,403.711 694.5,404.5C 690.806,408.86 686.806,412.86 682.5,416.5C 669.167,416.5 655.833,416.5 642.5,416.5C 642.263,417.791 642.596,418.791 643.5,419.5C 657.167,420.833 670.833,420.833 684.5,419.5C 693.162,411.005 701.995,402.672 711,394.5C 713.631,398.629 717.131,399.462 721.5,397C 724.339,392.868 724.006,389.035 720.5,385.5C 721.822,385.33 722.989,385.663 724,386.5C 724.629,390.871 724.463,395.204 723.5,399.5C 721.234,399.141 719.401,399.808 718,401.5C 716.951,399.893 715.451,399.227 713.5,399.5C 713.023,403.866 714.856,406.866 719,408.5C 719.167,410.333 719.333,412.167 719.5,414C 718.741,417.959 717.908,421.792 717,425.5C 718.751,426.809 720.251,426.475 721.5,424.5C 722.197,426.385 723.197,426.718 724.5,425.5C 725.524,426.853 726.857,427.52 728.5,427.5C 728.5,426.5 728.5,425.5 728.5,424.5C 736.014,424.376 743.347,424.376 750.5,424.5C 750.5,425.5 750.5,426.5 750.5,427.5C 743.492,427.334 736.492,427.5 729.5,428C 725.24,432.768 720.573,436.934 715.5,440.5C 692.833,440.5 670.167,440.5 647.5,440.5C 647.918,439.778 648.584,439.278 649.5,439C 662.162,438.5 674.829,438.333 687.5,438.5C 687.5,437.167 687.5,435.833 687.5,434.5C 673.829,434.667 660.163,434.5 646.5,434C 644.132,431.706 641.465,431.206 638.5,432.5C 638.684,436.558 638.684,440.558 638.5,444.5C 632.578,402.965 612.244,370.632 577.5,347.5C 579.861,347.674 582.194,348.007 584.5,348.5C 584.281,349.675 584.614,350.675 585.5,351.5C 587.132,352.297 588.632,353.297 590,354.5C 592.264,353.139 594.43,353.306 596.5,355C 599.616,358.071 602.616,361.238 605.5,364.5C 605.833,364.333 606.167,364.167 606.5,364C 602.389,360.492 602.556,359.992 607,362.5C 607.497,360.19 607.663,357.857 607.5,355.5C 608.833,355.5 610.167,355.5 611.5,355.5C 610.524,356.815 609.524,358.148 608.5,359.5C 609.437,361.642 610.77,361.976 612.5,360.5C 614.777,360.863 615.444,361.863 614.5,363.5C 612.257,364.474 609.924,364.808 607.5,364.5C 607.5,365.5 607.5,366.5 607.5,367.5C 608.675,367.281 609.675,367.614 610.5,368.5C 609.674,369.451 609.508,370.451 610,371.5C 611.487,370.845 612.653,369.845 613.5,368.5C 624.814,367.501 636.147,367.168 647.5,367.5C 637.659,368.167 627.659,368.833 617.5,369.5C 617.977,370.478 618.643,371.311 619.5,372C 629.167,372.667 638.833,372.667 648.5,372C 658.863,361.303 669.529,350.97 680.5,341C 681.833,340.333 683.167,340.333 684.5,341C 688.552,343.376 689.385,346.543 687,350.5C 676.5,360.333 666,370.167 655.5,380C 645.483,380.168 635.483,380.668 625.5,381.5C 625.833,382.167 626.167,382.833 626.5,383.5C 636.483,384.666 646.483,384.832 656.5,384C 666.037,374.96 675.704,366.127 685.5,357.5 Z"/></g>
<g><path style="opacity:1" fill="#8c94a1" d="M 358.5,392.5 C 368.833,392.5 379.167,392.5 389.5,392.5C 389.737,393.791 389.404,394.791 388.5,395.5C 378.708,393.842 368.708,392.842 358.5,392.5 Z"/></g>
<g><path style="opacity:1" fill="#24353d" d="M 720.5,385.5 C 724.006,389.035 724.339,392.868 721.5,397C 717.131,399.462 713.631,398.629 711,394.5C 701.995,402.672 693.162,411.005 684.5,419.5C 684.5,418.167 683.833,417.5 682.5,417.5C 682.5,417.167 682.5,416.833 682.5,416.5C 686.806,412.86 690.806,408.86 694.5,404.5C 702.057,399.111 708.39,392.611 713.5,385C 715.929,384.297 718.262,384.463 720.5,385.5 Z"/></g>
<g><path style="opacity:1" fill="#dadfe7" d="M 714.5,388.5 C 718.73,387.831 720.563,389.498 720,393.5C 714.82,395.313 712.987,393.646 714.5,388.5 Z"/></g>
<g><path style="opacity:1" fill="#252f3a" d="M 699.5,380.5 C 700.833,381.833 700.833,383.167 699.5,384.5C 690.704,392.126 682.037,399.96 673.5,408C 661.992,408.826 650.659,408.659 639.5,407.5C 650.295,405.841 661.295,404.841 672.5,404.5C 678.631,398.87 684.631,393.036 690.5,387C 693.397,384.59 696.397,382.423 699.5,380.5 Z"/></g>
<g><path style="opacity:1" fill="#a2aaad" d="M 672.5,404.5 C 661.295,404.841 650.295,405.841 639.5,407.5C 638.596,406.791 638.263,405.791 638.5,404.5C 649.833,404.5 661.167,404.5 672.5,404.5 Z"/></g>
<g><path style="opacity:1" fill="#27303f" d="M 323.5,381.5 C 325.255,382.072 326.922,382.906 328.5,384C 335.53,391.365 342.864,398.365 350.5,405C 361.515,405.168 372.515,405.668 383.5,406.5C 383.291,407.086 382.957,407.586 382.5,408C 371.167,408.667 359.833,408.667 348.5,408C 339.53,400.031 330.863,391.697 322.5,383C 323.056,382.617 323.389,382.117 323.5,381.5 Z"/></g>
<g><path style="opacity:1" fill="#26323e" d="M 340.5,416.5 C 353.366,416.84 366.033,417.84 378.5,419.5C 365.34,420.66 352.006,420.827 338.5,420C 329.428,411.384 320.262,402.884 311,394.5C 306.951,399.818 302.951,399.818 299,394.5C 297.447,386.72 300.614,383.553 308.5,385C 318.293,396.292 328.959,406.792 340.5,416.5 Z"/></g>
<g><path style="opacity:1" fill="#d7e1e6" d="M 302.5,388.5 C 307.123,387.408 308.956,389.075 308,393.5C 302.42,395.752 300.587,394.085 302.5,388.5 Z"/></g>
<g><path style="opacity:1" fill="#68727b" d="M 340.5,416.5 C 353.5,416.5 366.5,416.5 379.5,416.5C 379.737,417.791 379.404,418.791 378.5,419.5C 366.033,417.84 353.366,416.84 340.5,416.5 Z"/></g>
<g><path style="opacity:1" fill="#6d7981" d="M 682.5,416.5 C 682.5,416.833 682.5,417.167 682.5,417.5C 669.124,416.852 656.124,417.519 643.5,419.5C 642.596,418.791 642.263,417.791 642.5,416.5C 655.833,416.5 669.167,416.5 682.5,416.5 Z"/></g>
<g><path style="opacity:1" fill="#21303b" d="M 332.5,428.5 C 346.672,429.167 361.006,429.833 375.5,430.5C 360.181,431.499 344.848,431.833 329.5,431.5C 325.002,427.17 320.335,423.003 315.5,419C 307.305,421.141 303.805,417.975 305,409.5C 308.793,405.566 312.626,405.566 316.5,409.5C 317.314,411.766 317.814,414.1 318,416.5C 322.726,420.735 327.559,424.735 332.5,428.5 Z"/></g>
<g><path style="opacity:1" fill="#dde7eb" d="M 308.5,410.5 C 313.159,410.015 314.492,411.848 312.5,416C 308.266,416.267 306.933,414.434 308.5,410.5 Z"/></g>
<g><path style="opacity:1" fill="#34424a" d="M 646.5,431.5 C 706.42,430.187 706.42,429.52 646.5,429.5C 661.328,428.669 676.328,428.169 691.5,428C 696,424.167 700.5,420.333 705,416.5C 704.309,408.526 707.809,405.693 715.5,408C 719.092,410.971 719.425,414.304 716.5,418C 712.653,420.296 708.653,421.296 704.5,421C 700.8,425.035 696.8,428.702 692.5,432C 676.994,432.828 661.661,432.661 646.5,431.5 Z"/></g>
<g><path style="opacity:1" fill="#dbe3e9" d="M 709.5,410.5 C 714.159,410.015 715.492,411.848 713.5,416C 709.266,416.267 707.933,414.434 709.5,410.5 Z"/></g>
<g><path style="opacity:1" fill="#203042" d="M 682.5,417.5 C 683.833,417.5 684.5,418.167 684.5,419.5C 670.833,420.833 657.167,420.833 643.5,419.5C 656.124,417.519 669.124,416.852 682.5,417.5 Z"/></g>
<g><path style="opacity:1" fill="#1f2f38" d="M 304.5,439.5 C 327.5,440.833 350.5,442.167 373.5,443.5C 350.27,443.434 326.936,443.434 303.5,443.5C 299.062,439.564 294.729,435.398 290.5,431C 284.5,430.333 278.5,430.333 272.5,431C 267.825,440.713 261.658,441.88 254,434.5C 251.635,423.531 256.135,419.031 267.5,421C 269.692,422.359 271.359,424.192 272.5,426.5C 279.142,427.331 285.809,427.831 292.5,428C 296.369,432.037 300.369,435.87 304.5,439.5 Z"/></g>
<g><path style="opacity:1" fill="#616c71" d="M 332.5,428.5 C 347.167,428.5 361.833,428.5 376.5,428.5C 376.5,429.833 376.5,431.167 376.5,432.5C 360.658,432.83 344.991,432.496 329.5,431.5C 344.848,431.833 360.181,431.499 375.5,430.5C 361.006,429.833 346.672,429.167 332.5,428.5 Z"/></g>
<g><path style="opacity:1" fill="#22303a" d="M 648.5,444.5 C 648.5,443.5 648.5,442.5 648.5,441.5C 671.006,441.831 693.34,441.497 715.5,440.5C 720.573,436.934 725.24,432.768 729.5,428C 736.492,427.5 743.492,427.334 750.5,427.5C 750.5,426.5 750.5,425.5 750.5,424.5C 757.003,418.918 763.169,419.251 769,425.5C 770.282,436.774 765.449,440.941 754.5,438C 752.343,436.019 750.676,433.686 749.5,431C 743.5,430.333 737.5,430.333 731.5,431C 727.134,435.701 722.467,440.034 717.5,444C 694.502,444.5 671.502,444.667 648.5,444.5 Z"/></g>
<g><path style="opacity:1" fill="#e4e8e9" d="M 756.5,423.5 C 762.679,422.858 765.846,425.525 766,431.5C 763.947,435.292 760.781,436.458 756.5,435C 752.555,431.169 752.555,427.336 756.5,423.5 Z"/></g>
<g><path style="opacity:1" fill="#192b43" d="M 646.5,429.5 C 706.42,429.52 706.42,430.187 646.5,431.5C 646.5,430.833 646.5,430.167 646.5,429.5 Z"/></g>
<g><path style="opacity:1" fill="#e1e7ea" d="M 259.5,423.5 C 268.968,423.285 271.301,427.118 266.5,435C 256.354,435.872 254.02,432.038 259.5,423.5 Z"/></g>
<g><path style="opacity:1" fill="#88929a" d="M 304.5,439.5 C 327.758,440.489 351.092,440.823 374.5,440.5C 374.768,442.099 374.434,443.432 373.5,444.5C 373.5,444.167 373.5,443.833 373.5,443.5C 350.5,442.167 327.5,440.833 304.5,439.5 Z"/></g>
<g><path style="opacity:1" fill="#929ca6" d="M 647.5,440.5 C 670.167,440.5 692.833,440.5 715.5,440.5C 693.34,441.497 671.006,441.831 648.5,441.5C 648.5,442.5 648.5,443.5 648.5,444.5C 647.566,443.432 647.232,442.099 647.5,440.5 Z"/></g>
<g><path style="opacity:1" fill="#323c44" d="M 373.5,443.5 C 373.5,443.833 373.5,444.167 373.5,444.5C 349.994,444.831 326.661,444.498 303.5,443.5C 326.936,443.434 350.27,443.434 373.5,443.5 Z"/></g>
<g><path style="opacity:1" fill="#203342" d="M 276.5,445.5 C 282.325,444.745 286.325,447.078 288.5,452.5C 316.825,453.5 345.159,453.833 373.5,453.5C 373.5,454.5 373.5,455.5 373.5,456.5C 345.165,456.333 316.831,456.5 288.5,457C 286.05,463.559 281.383,465.892 274.5,464C 267.468,457.022 268.134,450.856 276.5,445.5 Z"/></g>
<g><path style="opacity:1" fill="#e3e3e3" d="M 276.5,449.5 C 284.744,449.228 287.078,452.728 283.5,460C 275.735,462.575 272.568,459.742 274,451.5C 274.995,450.934 275.828,450.267 276.5,449.5 Z"/></g>
<g><path style="opacity:1" fill="#2d3f4d" d="M 738.5,446.5 C 750.545,445.04 754.712,450.04 751,461.5C 745.318,465.793 739.984,465.459 735,460.5C 734.517,459.552 734.351,458.552 734.5,457.5C 705.833,457.5 677.167,457.5 648.5,457.5C 648.5,456.167 648.5,454.833 648.5,453.5C 676.841,453.833 705.175,453.5 733.5,452.5C 735.19,450.481 736.856,448.481 738.5,446.5 Z"/></g>
<g><path style="opacity:1" fill="#e4e5e3" d="M 740.5,449.5 C 749.769,449.595 751.769,453.428 746.5,461C 739,462.833 736.167,460 738,452.5C 739.045,451.627 739.878,450.627 740.5,449.5 Z"/></g>
<g><path style="opacity:1" fill="#1e293e" d="M 319.5,466.5 C 337.5,466.5 355.5,466.5 373.5,466.5C 373.5,467.5 373.5,468.5 373.5,469.5C 360.833,469.5 348.167,469.5 335.5,469.5C 329.923,469.144 324.59,468.144 319.5,466.5 Z"/></g>
<g><path style="opacity:1" fill="#b8c3cc" d="M 373.5,466.5 C 374.434,467.568 374.768,468.901 374.5,470.5C 351.5,470.5 328.5,470.5 305.5,470.5C 315.319,469.506 325.319,469.173 335.5,469.5C 348.167,469.5 360.833,469.5 373.5,469.5C 373.5,468.5 373.5,467.5 373.5,466.5 Z"/></g>
<g><path style="opacity:1" fill="#b5c2cc" d="M 648.5,466.5 C 648.5,467.5 648.5,468.5 648.5,469.5C 671.673,469.169 694.673,469.502 717.5,470.5C 694.258,470.173 671.092,470.506 648,471.5C 647.22,469.613 647.387,467.946 648.5,466.5 Z"/></g>
<g><path style="opacity:1" fill="#1b2d3a" d="M 319.5,466.5 C 324.59,468.144 329.923,469.144 335.5,469.5C 325.319,469.173 315.319,469.506 305.5,470.5C 300.741,473.753 296.408,477.587 292.5,482C 285.508,482.5 278.508,482.666 271.5,482.5C 271.556,488.445 268.556,491.445 262.5,491.5C 254.954,490.42 251.788,486.086 253,478.5C 255.919,472.975 260.419,471.142 266.5,473C 269.167,474.333 271.167,476.333 272.5,479C 278.833,479.667 285.167,479.667 291.5,479C 295.5,475 299.5,471 303.5,467C 308.823,466.501 314.156,466.334 319.5,466.5 Z"/></g>
<g><path style="opacity:1" fill="#68767d" d="M 646.5,479.5 C 661.973,481.162 677.64,482.162 693.5,482.5C 677.5,482.5 661.5,482.5 645.5,482.5C 645.263,481.209 645.596,480.209 646.5,479.5 Z"/></g>
<g><path style="opacity:1" fill="#d9e1e4" d="M 259.5,475.5 C 268.049,475.521 270.716,479.354 267.5,487C 261.35,489.925 257.683,488.092 256.5,481.5C 256.628,479.045 257.628,477.045 259.5,475.5 Z"/></g>
<g><path style="opacity:1" fill="#1f2f3d" d="M 648.5,466.5 C 671.836,466.333 695.169,466.5 718.5,467C 723.134,470.632 727.467,474.632 731.5,479C 737.825,479.5 744.158,479.666 750.5,479.5C 751.392,474.62 754.392,472.287 759.5,472.5C 768.527,473.881 771.36,478.881 768,487.5C 763.8,491.714 758.966,492.548 753.5,490C 751.549,488.266 750.549,486.099 750.5,483.5C 743.165,482.981 735.831,482.314 728.5,481.5C 725.146,477.479 721.479,473.812 717.5,470.5C 694.673,469.502 671.673,469.169 648.5,469.5C 648.5,468.5 648.5,467.5 648.5,466.5 Z"/></g>
<g><path style="opacity:1" fill="#e2e7e9" d="M 757.5,475.5 C 764.369,475.538 766.869,478.871 765,485.5C 761.333,489.5 757.667,489.5 754,485.5C 752.581,481.082 753.748,477.749 757.5,475.5 Z"/></g>
<g><path style="opacity:1" fill="#2e3d46" d="M 326.5,478.5 C 342.833,478.5 359.167,478.5 375.5,478.5C 375.5,479.833 375.5,481.167 375.5,482.5C 359.497,482.333 343.497,482.5 327.5,483C 324.283,486.517 320.783,489.684 317,492.5C 316.887,497.275 314.553,500.275 310,501.5C 302.608,498.207 301.775,493.707 307.5,488C 310.419,487.46 313.086,487.793 315.5,489C 319.668,485.998 323.335,482.498 326.5,478.5 Z"/></g>
<g><path style="opacity:1" fill="#243440" d="M 693.5,482.5 C 677.64,482.162 661.973,481.162 646.5,479.5C 662.661,478.338 678.995,478.172 695.5,479C 698.867,482.703 702.534,486.036 706.5,489C 709.46,488.68 712.46,488.68 715.5,489C 718.576,491.612 719.243,494.779 717.5,498.5C 710.333,502.604 706.167,500.604 705,492.5C 701.59,488.584 697.757,485.251 693.5,482.5 Z"/></g>
<g><path style="opacity:1" fill="#d5e5ec" d="M 710.5,491.5 C 714.235,491.546 715.568,493.213 714.5,496.5C 709.732,497.889 708.398,496.223 710.5,491.5 Z"/></g>
<g><path style="opacity:1" fill="#deedf1" d="M 308.5,491.5 C 312.692,491.403 314.025,493.236 312.5,497C 307.728,497.81 306.395,495.977 308.5,491.5 Z"/></g>
<g><path style="opacity:1" fill="#2e3a46" d="M 347.5,502.5 C 358.838,502.333 370.172,502.5 381.5,503C 382.337,504.011 382.67,505.178 382.5,506.5C 371.495,506.333 360.495,506.5 349.5,507C 341.5,514.333 333.5,521.667 325.5,529C 324.552,529.483 323.552,529.649 322.5,529.5C 322.351,528.448 322.517,527.448 323,526.5C 331.671,518.995 339.838,510.995 347.5,502.5 Z"/></g>
<g><path style="opacity:1" fill="#2f3d48" d="M 677.5,505.5 C 684.534,513.535 692.201,520.868 700.5,527.5C 700.489,529.686 699.489,530.519 697.5,530C 689.5,522.333 681.5,514.667 673.5,507C 661.819,506.833 650.152,506.333 638.5,505.5C 638.833,504.833 639.167,504.167 639.5,503.5C 651.152,502.334 662.819,502.167 674.5,503C 675.373,504.045 676.373,504.878 677.5,505.5 Z"/></g>
<g><path style="opacity:1" fill="#293a45" d="M 647.5,490.5 C 660.171,490.333 672.838,490.5 685.5,491C 693.087,499.426 701.421,506.926 710.5,513.5C 714.5,510.833 718.5,510.833 722.5,513.5C 724.968,521.741 721.968,525.241 713.5,524C 706.706,515.707 699.039,508.207 690.5,501.5C 688.706,499.203 686.706,497.037 684.5,495C 670.837,494.5 657.171,494.333 643.5,494.5C 643.5,493.167 643.5,491.833 643.5,490.5C 644.833,490.5 646.167,490.5 647.5,490.5 Z"/></g>
<g><path style="opacity:1" fill="#2a3845" d="M 336.5,490.5 C 350.5,490.5 364.5,490.5 378.5,490.5C 378.5,491.833 378.5,493.167 378.5,494.5C 365.163,494.333 351.829,494.5 338.5,495C 330.316,502.685 321.983,510.185 313.5,517.5C 312.703,521.964 310.036,524.297 305.5,524.5C 300.086,523.348 297.919,520.015 299,514.5C 300.509,512.119 302.675,511.119 305.5,511.5C 308.307,511.902 310.973,512.402 313.5,513C 321.725,505.94 329.392,498.44 336.5,490.5 Z"/></g>
<g><path style="opacity:1" fill="#dce3e3" d="M 303.5,514.5 C 307.509,514.014 309.342,515.68 309,519.5C 303.42,521.752 301.587,520.085 303.5,514.5 Z"/></g>
<g><path style="opacity:1" fill="#222f3b" d="M 355.5,515.5 C 366.172,515.333 376.839,515.5 387.5,516C 387.957,516.414 388.291,516.914 388.5,517.5C 378.183,518.332 367.849,518.832 357.5,519C 347.656,528.012 337.989,537.178 328.5,546.5C 320.521,547.332 312.521,547.832 304.5,548C 302.29,555.044 297.623,557.378 290.5,555C 288.714,554.215 287.214,553.049 286,551.5C 283.786,541.052 287.953,536.218 298.5,537C 301.363,538.364 303.363,540.53 304.5,543.5C 311.811,544.665 319.144,544.831 326.5,544C 336.062,534.271 345.728,524.771 355.5,515.5 Z"/></g>
<g><path style="opacity:1" fill="#dae0e2" d="M 714.5,514.5 C 718.509,514.014 720.342,515.68 720,519.5C 714.42,521.752 712.587,520.085 714.5,514.5 Z"/></g>
<g><path style="opacity:1" fill="#e3e5e6" d="M 499.5,336.5 C 563.651,335.526 606.151,365.193 627,425.5C 636.757,474.446 623.257,515.613 586.5,549C 545.695,579.725 502.028,584.391 455.5,563C 418.494,541.852 397.327,510.019 392,467.5C 389.664,416.998 409.831,378.498 452.5,352C 467.327,343.89 482.994,338.724 499.5,336.5 Z"/></g>
<g><path style="opacity:1" fill="#25333f" d="M 500.5,345.5 C 548.412,343.978 584.578,363.645 609,404.5C 628.738,446.64 625.071,486.64 598,524.5C 561.955,565.574 518.122,576.741 466.5,558C 414.225,530.278 393.392,487.111 404,428.5C 419.151,380.836 451.318,353.169 500.5,345.5 Z"/></g>
<g><path style="opacity:1" fill="#1e2e39" d="M 691.5,539.5 C 693.296,540.793 694.963,542.293 696.5,544C 703.826,544.5 711.159,544.666 718.5,544.5C 721.337,536.094 726.67,534.26 734.5,539C 738.997,545.351 737.997,550.684 731.5,555C 724.881,557.025 720.548,554.858 718.5,548.5C 710.324,547.833 701.99,547.167 693.5,546.5C 684.011,537.178 674.344,528.012 664.5,519C 654.172,518.5 643.839,518.334 633.5,518.5C 633.5,517.5 633.5,516.5 633.5,515.5C 644.505,515.333 655.505,515.5 666.5,516C 675.005,523.672 683.338,531.505 691.5,539.5 Z"/></g>
<g><path style="opacity:1" fill="#e1e7e9" d="M 723.5,540.5 C 733.859,539.691 736.192,543.524 730.5,552C 721.465,552.406 719.132,548.572 723.5,540.5 Z"/></g>
<g><path style="opacity:1" fill="#e3e5e6" d="M 501.5,348.5 C 553.84,347.735 590.674,371.068 612,418.5C 626.155,464.079 616.322,503.579 582.5,537C 549.35,564.11 512.35,570.777 471.5,557C 427.168,536.64 404.501,501.973 403.5,453C 406.497,412.326 425.497,381.659 460.5,361C 473.577,354.487 487.244,350.32 501.5,348.5 Z"/></g>
<g><path style="opacity:1" fill="#1a2f3d" d="M 499.5,355.5 C 542.133,353.232 574.967,369.899 598,405.5C 618.02,444.79 615.353,482.457 590,518.5C 561.028,552.267 524.862,563.767 481.5,553C 431.993,533.534 408.493,497.034 411,443.5C 420.483,393.85 449.983,364.517 499.5,355.5 Z"/></g>
<g><path style="opacity:1" fill="#7a848d" d="M 592.5,446.5 C 593.49,452.645 593.823,458.978 593.5,465.5C 588.5,465.5 583.5,465.5 578.5,465.5C 582.97,464.514 587.637,464.181 592.5,464.5C 592.5,458.5 592.5,452.5 592.5,446.5 Z"/></g>
<g><path style="opacity:1" fill="#b5c0c8" d="M 443.5,446.5 C 439.366,447.485 435.032,447.818 430.5,447.5C 430.5,453.167 430.5,458.833 430.5,464.5C 435.032,464.182 439.366,464.515 443.5,465.5C 438.833,465.5 434.167,465.5 429.5,465.5C 429.5,459.167 429.5,452.833 429.5,446.5C 434.167,446.5 438.833,446.5 443.5,446.5 Z"/></g>
<g><path style="opacity:1" fill="#e1e3e5" d="M 538.5,405.5 C 537.549,406.919 537.216,408.585 537.5,410.5C 545.167,410.5 552.833,410.5 560.5,410.5C 560.5,408.833 560.5,407.167 560.5,405.5C 564.167,405.5 567.833,405.5 571.5,405.5C 571.965,410.205 571.299,414.705 569.5,419C 572.805,427.749 575.805,436.582 578.5,445.5C 583.12,446.493 587.786,446.827 592.5,446.5C 592.5,452.5 592.5,458.5 592.5,464.5C 587.637,464.181 582.97,464.514 578.5,465.5C 575.335,475.804 572.002,486.137 568.5,496.5C 569.833,496.5 571.167,496.5 572.5,496.5C 572.5,500.5 572.5,504.5 572.5,508.5C 568.5,508.5 564.5,508.5 560.5,508.5C 560.5,506.833 560.5,505.167 560.5,503.5C 552.833,503.5 545.167,503.5 537.5,503.5C 537.263,504.791 537.596,505.791 538.5,506.5C 540.794,510.24 543.46,513.74 546.5,517C 548.134,517.494 549.801,517.66 551.5,517.5C 551.5,521.167 551.5,524.833 551.5,528.5C 547.833,528.5 544.167,528.5 540.5,528.5C 540.241,524.76 540.574,521.094 541.5,517.5C 539.358,513.525 536.358,510.358 532.5,508C 531.5,507.333 530.5,507.333 529.5,508C 525.082,511.747 521.416,516.08 518.5,521C 519.473,526.407 519.807,531.907 519.5,537.5C 513.833,537.5 508.167,537.5 502.5,537.5C 502.215,532.103 502.549,526.77 503.5,521.5C 500.432,516.541 496.765,512.041 492.5,508C 490.212,507.582 488.212,508.249 486.5,510C 483.794,512.371 481.461,515.037 479.5,518C 481.362,521.149 482.029,524.649 481.5,528.5C 477.833,528.5 474.167,528.5 470.5,528.5C 470.5,524.833 470.5,521.167 470.5,517.5C 472.604,517.799 474.604,517.466 476.5,516.5C 479.083,513.003 481.416,509.336 483.5,505.5C 476.197,504.503 468.863,504.169 461.5,504.5C 461.5,505.833 461.5,507.167 461.5,508.5C 457.5,508.5 453.5,508.5 449.5,508.5C 449.5,504.5 449.5,500.5 449.5,496.5C 450.5,496.5 451.5,496.5 452.5,496.5C 449.633,486.017 446.633,475.684 443.5,465.5C 439.366,464.515 435.032,464.182 430.5,464.5C 430.5,458.833 430.5,453.167 430.5,447.5C 435.032,447.818 439.366,447.485 443.5,446.5C 446.035,437.368 449.035,428.368 452.5,419.5C 450.641,415.078 449.974,410.412 450.5,405.5C 454.167,405.5 457.833,405.5 461.5,405.5C 461.5,407.167 461.5,408.833 461.5,410.5C 469.352,410.825 477.018,410.492 484.5,409.5C 484.649,408.448 484.483,407.448 484,406.5C 481.049,403.428 478.216,400.261 475.5,397C 473.866,396.506 472.199,396.34 470.5,396.5C 470.5,392.5 470.5,388.5 470.5,384.5C 474.167,384.5 477.833,384.5 481.5,384.5C 481.533,388.92 481.367,393.254 481,397.5C 483.5,400 486,402.5 488.5,405C 489.833,405.667 491.167,405.667 492.5,405C 501.944,397.779 505.277,388.279 502.5,376.5C 508.167,376.5 513.833,376.5 519.5,376.5C 516.632,388.451 519.965,397.951 529.5,405C 530.833,405.667 532.167,405.667 533.5,405C 536,402.5 538.5,400 541,397.5C 540.647,393.587 540.48,389.587 540.5,385.5C 544.167,385.5 547.833,385.5 551.5,385.5C 551.5,389.167 551.5,392.833 551.5,396.5C 549.396,396.201 547.396,396.534 545.5,397.5C 543.149,400.239 540.816,402.905 538.5,405.5 Z"/></g>
<g><path style="opacity:1" fill="#1b2e3b" d="M 497.5,504.5 C 506.506,504.334 515.506,504.5 524.5,505C 521.553,510.389 518.22,515.555 514.5,520.5C 510.485,522.115 507.319,521.115 505,517.5C 501.845,513.52 499.345,509.186 497.5,504.5 Z"/></g>
<g><path style="opacity:1" fill="#717b86" d="M 560.5,508.5 C 559.566,507.432 559.232,506.099 559.5,504.5C 552.087,503.872 545.087,504.539 538.5,506.5C 537.596,505.791 537.263,504.791 537.5,503.5C 545.167,503.5 552.833,503.5 560.5,503.5C 560.5,505.167 560.5,506.833 560.5,508.5 Z"/></g>
<g><path style="opacity:1" fill="#1a2f3d" d="M 536.5,458.5 C 548.167,458.5 559.833,458.5 571.5,458.5C 571.232,460.099 571.566,461.432 572.5,462.5C 571.736,473.527 568.736,484.194 563.5,494.5C 562.675,495.386 561.675,495.719 560.5,495.5C 560.5,497.167 560.5,498.833 560.5,500.5C 552.833,500.5 545.167,500.5 537.5,500.5C 537.5,498.833 537.5,497.167 537.5,495.5C 533.167,495.5 528.833,495.5 524.5,495.5C 524.714,497.144 524.38,498.644 523.5,500C 514.84,500.5 506.173,500.666 497.5,500.5C 497.5,499.167 497.5,497.833 497.5,496.5C 493.03,495.514 488.363,495.181 483.5,495.5C 483.5,496.833 483.5,498.167 483.5,499.5C 476.167,499.5 468.833,499.5 461.5,499.5C 461.5,498.5 461.5,497.5 461.5,496.5C 460.325,496.719 459.325,496.386 458.5,495.5C 452.563,483.391 449.563,470.725 449.5,457.5C 461.838,457.333 474.171,457.5 486.5,458C 494.681,466.348 503.014,474.514 511.5,482.5C 519.854,474.479 528.187,466.479 536.5,458.5 Z"/></g>
<g><path style="opacity:1" fill="#9ea1a3" d="M 497.5,496.5 C 493.167,496.5 488.833,496.5 484.5,496.5C 484.737,497.791 484.404,498.791 483.5,499.5C 483.5,498.167 483.5,496.833 483.5,495.5C 488.363,495.181 493.03,495.514 497.5,496.5 Z"/></g>
<g><path style="opacity:1" fill="#54616c" d="M 536.5,458.5 C 548.322,457.505 560.322,457.172 572.5,457.5C 572.5,459.167 572.5,460.833 572.5,462.5C 571.566,461.432 571.232,460.099 571.5,458.5C 559.833,458.5 548.167,458.5 536.5,458.5 Z"/></g>
<g><path style="opacity:1" fill="#1c303e" d="M 509.5,444.5 C 514.863,447.022 519.197,450.855 522.5,456C 519.337,460.329 515.671,464.162 511.5,467.5C 507.167,463.833 503.167,459.833 499.5,455.5C 502.855,451.813 506.189,448.147 509.5,444.5 Z"/></g>
<g><path style="opacity:1" fill="#1a2f3d" d="M 461.5,413.5 C 469.167,413.5 476.833,413.5 484.5,413.5C 484.5,414.833 484.5,416.167 484.5,417.5C 489.167,417.5 493.833,417.5 498.5,417.5C 498.5,416.167 498.5,414.833 498.5,413.5C 507.167,413.5 515.833,413.5 524.5,413.5C 524.5,414.833 524.5,416.167 524.5,417.5C 528.833,417.5 533.167,417.5 537.5,417.5C 537.5,416.167 537.5,414.833 537.5,413.5C 545.167,413.5 552.833,413.5 560.5,413.5C 560.5,414.833 560.5,416.167 560.5,417.5C 561.822,417.33 562.989,417.663 564,418.5C 568.021,427.543 571.188,436.876 573.5,446.5C 572.777,448.782 572.443,451.116 572.5,453.5C 560.495,453.667 548.495,453.5 536.5,453C 528.319,444.652 519.986,436.486 511.5,428.5C 503.014,436.486 494.681,444.652 486.5,453C 474.171,453.5 461.838,453.667 449.5,453.5C 449.557,451.116 449.223,448.782 448.5,446.5C 451.111,437.003 454.111,427.669 457.5,418.5C 460.91,418.616 462.244,416.95 461.5,413.5 Z"/></g>
<g><path style="opacity:1" fill="#667178" d="M 538.5,405.5 C 538.5,406.833 538.5,408.167 538.5,409.5C 545.5,409.5 552.5,409.5 559.5,409.5C 559.232,407.901 559.566,406.568 560.5,405.5C 560.5,407.167 560.5,408.833 560.5,410.5C 552.833,410.5 545.167,410.5 537.5,410.5C 537.216,408.585 537.549,406.919 538.5,405.5 Z"/></g>
<g><path style="opacity:1" fill="#5f666b" d="M 523.5,405.5 C 524.451,406.919 524.784,408.585 524.5,410.5C 515.318,410.827 506.318,410.493 497.5,409.5C 506.167,409.5 514.833,409.5 523.5,409.5C 523.5,408.167 523.5,406.833 523.5,405.5 Z"/></g>
<g><path style="opacity:1" fill="#859199" d="M 461.5,405.5 C 462.434,406.568 462.768,407.901 462.5,409.5C 469.833,409.5 477.167,409.5 484.5,409.5C 477.018,410.492 469.352,410.825 461.5,410.5C 461.5,408.833 461.5,407.167 461.5,405.5 Z"/></g>
<g><path style="opacity:1" fill="#1b2e3c" d="M 523.5,405.5 C 523.5,406.833 523.5,408.167 523.5,409.5C 514.833,409.5 506.167,409.5 497.5,409.5C 499.39,403.236 502.724,397.736 507.5,393C 509.833,392.333 512.167,392.333 514.5,393C 517.877,396.931 520.877,401.098 523.5,405.5 Z"/></g>
<g><path style="opacity:1" fill="#dee5e8" d="M 292.5,539.5 C 300.543,540.02 302.876,543.854 299.5,551C 291.95,553.984 288.45,551.484 289,543.5C 289.69,541.65 290.856,540.316 292.5,539.5 Z"/></g>
<g><path style="opacity:1" fill="#253542" d="M 366.5,527.5 C 375.833,527.5 385.167,527.5 394.5,527.5C 394.5,528.5 394.5,529.5 394.5,530.5C 385.494,530.334 376.494,530.5 367.5,531C 356.667,541.167 345.833,551.333 335,561.5C 333.902,568.743 336.735,571.243 343.5,569C 354.011,559.321 364.344,549.488 374.5,539.5C 383.833,538.167 393.167,538.167 402.5,539.5C 402.833,540.167 403.167,540.833 403.5,541.5C 394.184,542.332 384.851,542.832 375.5,543C 366.137,552.697 356.47,562.03 346.5,571C 340.058,575.124 334.892,573.957 331,567.5C 330.245,564.697 330.578,562.03 332,559.5C 343.71,548.924 355.21,538.257 366.5,527.5 Z"/></g>
<g><path style="opacity:1" fill="#23333e" d="M 671.5,541.5 C 678.105,547.603 684.605,553.937 691,560.5C 691.408,572.439 686.242,575.939 675.5,571C 666.137,561.303 656.47,551.97 646.5,543C 637.173,542.5 627.839,542.334 618.5,542.5C 618.33,541.178 618.663,540.011 619.5,539C 628.833,538.333 638.167,538.333 647.5,539C 657.5,548.667 667.5,558.333 677.5,568C 684.099,572.117 687.599,570.284 688,562.5C 676.833,552 665.667,541.5 654.5,531C 645.149,530.832 635.816,530.332 626.5,529.5C 626.709,528.914 627.043,528.414 627.5,528C 637.167,527.333 646.833,527.333 656.5,528C 661.669,532.337 666.669,536.837 671.5,541.5 Z"/></g>
<g><path style="opacity:1" fill="#e4e8ea" d="M 637.5,471.5 C 638.473,473.948 638.806,476.615 638.5,479.5C 640.5,479.5 642.5,479.5 644.5,479.5C 644.286,481.144 644.62,482.644 645.5,484C 648.167,484.333 650.833,484.667 653.5,485C 647.312,485.548 647.312,486.881 653.5,489C 651.292,489.191 649.292,489.691 647.5,490.5C 646.167,490.5 644.833,490.5 643.5,490.5C 643.5,491.833 643.5,493.167 643.5,494.5C 657.171,494.333 670.837,494.5 684.5,495C 686.706,497.037 688.706,499.203 690.5,501.5C 689.883,501.611 689.383,501.944 689,502.5C 687.457,500.622 685.624,499.122 683.5,498C 683.833,497.667 684.167,497.333 684.5,497C 680.249,495.805 675.915,495.305 671.5,495.5C 671.5,496.5 671.5,497.5 671.5,498.5C 675.562,498.935 677.562,501.269 677.5,505.5C 676.373,504.878 675.373,504.045 674.5,503C 662.819,502.167 651.152,502.334 639.5,503.5C 639.167,504.167 638.833,504.833 638.5,505.5C 650.152,506.333 661.819,506.833 673.5,507C 681.5,514.667 689.5,522.333 697.5,530C 699.489,530.519 700.489,529.686 700.5,527.5C 701.5,527.5 702.5,527.5 703.5,527.5C 703.923,530.288 702.923,532.288 700.5,533.5C 698.995,530.869 698.329,531.203 698.5,534.5C 697.448,534.351 696.448,534.517 695.5,535C 697.253,539.349 696.42,540.182 693,537.5C 692.283,538.044 691.783,538.711 691.5,539.5C 683.338,531.505 675.005,523.672 666.5,516C 655.505,515.5 644.505,515.333 633.5,515.5C 633.5,516.5 633.5,517.5 633.5,518.5C 643.839,518.334 654.172,518.5 664.5,519C 674.344,528.012 684.011,537.178 693.5,546.5C 701.99,547.167 710.324,547.833 718.5,548.5C 709.339,548.597 700.339,548.597 691.5,548.5C 690.353,548.818 689.519,549.484 689,550.5C 688.667,549.5 688.333,548.5 688,547.5C 687.333,546.167 686.667,546.167 686,547.5C 683.718,542.884 680.384,539.217 676,536.5C 675.981,533.692 674.981,531.359 673,529.5C 671.915,530.293 670.748,530.96 669.5,531.5C 668.24,529.647 668.24,527.814 669.5,526C 666.037,525.212 663.037,523.546 660.5,521C 650.833,520.333 641.167,520.333 631.5,521C 630.289,521.893 630.289,522.726 631.5,523.5C 641.123,524.445 650.79,525.112 660.5,525.5C 660.343,526.873 660.51,528.207 661,529.5C 665.484,532.319 669.318,535.819 672.5,540C 671.944,540.383 671.611,540.883 671.5,541.5C 666.669,536.837 661.669,532.337 656.5,528C 646.833,527.333 637.167,527.333 627.5,528C 627.043,528.414 626.709,528.914 626.5,529.5C 635.816,530.332 645.149,530.832 654.5,531C 665.667,541.5 676.833,552 688,562.5C 687.599,570.284 684.099,572.117 677.5,568C 667.5,558.333 657.5,548.667 647.5,539C 638.167,538.333 628.833,538.333 619.5,539C 618.663,540.011 618.33,541.178 618.5,542.5C 617.732,541.737 617.232,540.737 617,539.5C 616.333,540.833 615.667,540.833 615,539.5C 613.755,543.732 613.922,548.065 615.5,552.5C 617.045,553.452 618.712,553.785 620.5,553.5C 620.5,555.5 620.5,557.5 620.5,559.5C 621.5,559.5 622.5,559.5 623.5,559.5C 623.5,560.5 623.5,561.5 623.5,562.5C 627.183,563.025 629.183,564.859 629.5,568C 631.217,569.559 633.217,570.392 635.5,570.5C 635.297,572.39 635.963,573.89 637.5,575C 636.944,575.383 636.611,575.883 636.5,576.5C 628.005,568.172 619.338,560.005 610.5,552C 608.333,551.5 607.5,552.333 608,554.5C 610.396,557.067 612.896,559.4 615.5,561.5C 612.994,560.25 610.327,559.584 607.5,559.5C 607.657,558.127 607.49,556.793 607,555.5C 605.992,555.982 604.825,556.148 603.5,556C 604.343,557.787 604.51,559.62 604,561.5C 605.648,562.717 607.481,563.55 609.5,564C 607.656,566.804 606.989,569.97 607.5,573.5C 606.5,573.5 605.5,573.5 604.5,573.5C 604.281,574.675 604.614,575.675 605.5,576.5C 607.833,577.833 610.167,579.167 612.5,580.5C 613.666,582.167 613.666,583.834 612.5,585.5C 606.311,579.476 599.978,573.643 593.5,568C 589.989,567.548 589.489,568.715 592,571.5C 603.699,582.367 615.199,593.367 626.5,604.5C 624.167,604.5 621.833,604.5 619.5,604.5C 619.5,605.5 619.5,606.5 619.5,607.5C 620.833,607.5 622.167,607.5 623.5,607.5C 622.417,613.815 621.25,620.149 620,626.5C 616.143,628.848 611.976,630.181 607.5,630.5C 607.65,633.926 606.484,634.259 604,631.5C 603.383,630.551 603.549,629.718 604.5,629C 603.333,628.5 602.5,627.667 602,626.5C 601.824,623.118 601.324,619.785 600.5,616.5C 599.205,615.902 597.872,615.402 596.5,615C 597.167,614.667 597.833,614.333 598.5,614C 596.113,612.453 594.78,610.287 594.5,607.5C 597.797,610.296 600.964,613.296 604,616.5C 602.895,625.713 606.728,628.547 615.5,625C 618.798,620.155 617.798,616.488 612.5,614C 610.167,613.667 607.833,613.333 605.5,613C 597.637,604.802 589.47,596.969 581,589.5C 580.828,584.798 580.328,580.132 579.5,575.5C 578.833,575.833 578.167,576.167 577.5,576.5C 576.338,581.131 576.172,585.798 577,590.5C 581.703,595.035 586.203,599.702 590.5,604.5C 588.609,603.464 586.776,603.464 585,604.5C 583.559,603.13 581.892,602.13 580,601.5C 578.365,599.757 578.198,597.923 579.5,596C 578.503,594.404 577.337,592.904 576,591.5C 575.23,587.195 574.064,583.028 572.5,579C 573.167,577.667 573.833,576.333 574.5,575C 571.334,572.187 568.001,572.187 564.5,575C 565.91,575.368 566.91,576.201 567.5,577.5C 566.948,579.003 566.948,580.669 567.5,582.5C 566.504,582.414 565.671,582.748 565,583.5C 564.5,594.495 564.333,605.495 564.5,616.5C 559.643,618.583 559.31,621.416 563.5,625C 562.924,626.714 561.757,627.881 560,628.5C 560.988,610.995 561.821,593.495 562.5,576C 561.552,575.517 560.552,575.351 559.5,575.5C 560.035,578.238 559.035,580.072 556.5,581C 556.018,583.746 556.685,586.413 558.5,589C 557.361,602.134 557.194,615.3 558,628.5C 558.714,632.104 560.547,634.937 563.5,637C 564.449,637.617 565.282,637.451 566,636.5C 566.163,638.676 566.996,640.509 568.5,642C 570.96,642.396 572.96,643.563 574.5,645.5C 575.466,643.604 575.799,641.604 575.5,639.5C 576.552,639.351 577.552,639.517 578.5,640C 576.232,644.834 575.232,650 575.5,655.5C 573.517,655.843 572.183,655.176 571.5,653.5C 573.609,652.948 574.442,651.614 574,649.5C 567.698,644.199 561.698,638.532 556,632.5C 555.5,617.504 555.333,602.504 555.5,587.5C 554.5,587.5 553.5,587.5 552.5,587.5C 552.5,602.833 552.5,618.167 552.5,633.5C 550.518,619.873 549.851,605.873 550.5,591.5C 549.022,591.762 547.689,591.429 546.5,590.5C 548.027,588.061 550.027,586.061 552.5,584.5C 552.267,578.513 550.267,577.513 546.5,581.5C 540.679,582.254 535.013,583.588 529.5,585.5C 528.446,585.32 527.446,584.987 526.5,584.5C 522.221,585.274 517.887,585.774 513.5,586C 515.5,586.333 517.5,586.667 519.5,587C 514.167,587.333 508.833,587.667 503.5,588C 506.146,588.497 508.813,588.664 511.5,588.5C 511.666,593.511 511.499,598.511 511,603.5C 509.294,600.041 509.128,596.541 510.5,593C 509.975,592.308 509.308,591.808 508.5,591.5C 507.833,628.998 507.167,666.331 506.5,703.5C 506.832,666.996 506.498,630.663 505.5,594.5C 505.5,593.5 505.5,592.5 505.5,591.5C 504.167,591.5 502.833,591.5 501.5,591.5C 501.5,630.167 501.5,668.833 501.5,707.5C 496.992,710.375 496.326,714.042 499.5,718.5C 498.883,718.611 498.383,718.944 498,719.5C 496.445,714.407 495.612,714.407 495.5,719.5C 488.428,719.356 488.428,717.356 495.5,713.5C 496.76,711.647 496.76,709.814 495.5,708C 496.905,706.731 498.571,706.231 500.5,706.5C 500.5,668.167 500.5,629.833 500.5,591.5C 499.5,591.5 498.5,591.5 497.5,591.5C 496.76,629.493 496.26,667.493 496,705.5C 493.109,702.777 492.776,699.777 495,696.5C 495.5,682.837 495.667,669.171 495.5,655.5C 494.5,655.5 493.5,655.5 492.5,655.5C 492.783,654.711 493.283,654.044 494,653.5C 494.5,633.503 494.667,613.503 494.5,593.5C 493.5,593.5 492.5,593.5 491.5,593.5C 491.83,613.007 491.497,632.341 490.5,651.5C 490.5,631.5 490.5,611.5 490.5,591.5C 489.5,591.5 488.5,591.5 487.5,591.5C 487.833,607.514 487.499,623.514 486.5,639.5C 483.554,642.99 481.554,646.99 480.5,651.5C 479.022,651.238 477.689,651.571 476.5,652.5C 475.403,654.535 473.737,655.868 471.5,656.5C 470.359,657.425 470.359,658.259 471.5,659C 469.187,659.662 466.854,660.162 464.5,660.5C 470.438,655.064 476.271,649.397 482,643.5C 482.5,626.17 482.667,608.837 482.5,591.5C 481.167,591.5 479.833,591.5 478.5,591.5C 478.667,608.503 478.5,625.503 478,642.5C 472.963,647.369 468.13,652.369 463.5,657.5C 461.852,658.81 460.186,660.143 458.5,661.5C 455.313,660.137 452.313,660.471 449.5,662.5C 447.896,661.713 447.229,660.38 447.5,658.5C 449.346,658.778 450.68,658.111 451.5,656.5C 450.311,655.571 448.978,655.238 447.5,655.5C 447.5,654.167 447.5,652.833 447.5,651.5C 448.738,652.412 450.072,652.579 451.5,652C 457.348,645.985 463.348,640.152 469.5,634.5C 470.826,619.005 470.826,603.672 469.5,588.5C 469.167,588.5 468.833,588.5 468.5,588.5C 468.44,587.957 468.107,587.624 467.5,587.5C 466.667,602.489 466.167,617.489 466,632.5C 460.298,638.37 454.465,644.036 448.5,649.5C 447.135,645.336 448.801,643.169 453.5,643C 453.167,642.667 452.833,642.333 452.5,642C 455.225,640.885 457.558,639.218 459.5,637C 458.376,636.751 457.376,636.251 456.5,635.5C 458.721,635.415 460.555,634.081 462,631.5C 462.333,632.167 462.667,632.833 463,633.5C 463.471,631.754 464.138,630.087 465,628.5C 465.945,614.084 465.445,599.75 463.5,585.5C 470.928,586.358 478.595,587.358 486.5,588.5C 489.625,588.565 492.625,588.065 495.5,587C 487.115,584.438 478.615,582.271 470,580.5C 467.538,579.1 467.371,578.1 469.5,577.5C 507.317,589.1 543.317,584.933 577.5,565C 611.271,542.615 631.271,511.448 637.5,471.5 Z"/></g>
<g><path style="opacity:1" fill="#25343f" d="M 636.5,576.5 C 638.148,577.81 639.814,579.143 641.5,580.5C 645.198,578.805 648.032,579.805 650,583.5C 650.796,591.524 647.296,594.19 639.5,591.5C 637.889,588.78 637.056,585.78 637,582.5C 629.965,575.297 622.798,568.297 615.5,561.5C 612.896,559.4 610.396,557.067 608,554.5C 607.5,552.333 608.333,551.5 610.5,552C 619.338,560.005 628.005,568.172 636.5,576.5 Z"/></g>
<g><path style="opacity:1" fill="#1f2f3c" d="M 411.5,551.5 C 413.686,551.511 414.519,552.511 414,554.5C 404.03,563.47 394.363,572.803 385,582.5C 385.972,585.644 385.472,588.644 383.5,591.5C 379.308,594.578 375.808,593.911 373,589.5C 372.25,582.249 375.417,579.083 382.5,580C 392.672,570.995 402.339,561.495 411.5,551.5 Z"/></g>
<g><path style="opacity:1" fill="#d5dfe0" d="M 376.5,583.5 C 380.908,583.062 382.575,585.062 381.5,589.5C 376.074,590.416 374.407,588.416 376.5,583.5 Z"/></g>
<g><path style="opacity:1" fill="#d3dee4" d="M 642.5,583.5 C 647.041,583.815 648.041,585.649 645.5,589C 640.289,589.546 639.289,587.713 642.5,583.5 Z"/></g>
<g><path style="opacity:1" fill="#253541" d="M 612.5,585.5 C 618.721,592.18 625.221,598.513 632,604.5C 639.42,602.919 642.753,605.919 642,613.5C 637.491,618.778 633.158,618.778 629,613.5C 628.667,610.833 628.333,608.167 628,605.5C 627.617,604.944 627.117,604.611 626.5,604.5C 615.199,593.367 603.699,582.367 592,571.5C 589.489,568.715 589.989,567.548 593.5,568C 599.978,573.643 606.311,579.476 612.5,585.5 Z"/></g>
<g><path style="opacity:1" fill="#adb4b7" d="M 541.5,591.5 C 542.209,590.596 543.209,590.263 544.5,590.5C 544.5,607.833 544.5,625.167 544.5,642.5C 544.162,625.309 543.162,608.309 541.5,591.5 Z"/></g>
<g><path style="opacity:1" fill="#1c2e3b" d="M 428.5,567.5 C 430.103,567.312 431.437,567.812 432.5,569C 419.693,581.473 406.86,593.973 394,606.5C 394.973,615.528 391.14,618.695 382.5,616C 379.385,611.356 380.052,607.356 384.5,604C 386.898,603.626 389.231,603.626 391.5,604C 404.312,592.355 416.646,580.188 428.5,567.5 Z"/></g>
<g><path style="opacity:1" fill="#485864" d="M 520.5,707.5 C 519.833,670.331 519.167,632.998 518.5,595.5C 517.833,632.998 517.167,670.331 516.5,707.5C 516.5,669.833 516.5,632.167 516.5,594.5C 517.833,594.5 519.167,594.5 520.5,594.5C 520.5,632.167 520.5,669.833 520.5,707.5 Z"/></g>
<g><path style="opacity:1" fill="#d5dde3" d="M 384.5,607.5 C 390.555,606.942 391.888,609.109 388.5,614C 383.791,614.082 382.458,611.915 384.5,607.5 Z"/></g>
<g><path style="opacity:1" fill="#24323c" d="M 567.5,582.5 C 567.333,593.172 567.5,603.839 568,614.5C 574.833,621.333 581.667,628.167 588.5,635C 599.064,636.194 601.064,640.861 594.5,649C 590.418,650.293 587.251,649.126 585,645.5C 584.68,642.46 584.68,639.46 585,636.5C 578.245,629.576 571.411,622.909 564.5,616.5C 564.333,605.495 564.5,594.495 565,583.5C 565.671,582.748 566.504,582.414 567.5,582.5 Z"/></g>
<g><path style="opacity:1" fill="#dce3e8" d="M 633.5,607.5 C 638.159,607.015 639.492,608.848 637.5,613C 631.546,614.227 630.212,612.394 633.5,607.5 Z"/></g>
<g><path style="opacity:1" fill="#1e303c" d="M 442.5,576.5 C 443.496,576.414 444.329,576.748 445,577.5C 445.667,581.833 445.667,586.167 445,590.5C 435.696,598.803 426.696,607.469 418,616.5C 419.376,624.917 415.876,627.917 407.5,625.5C 403.671,616.971 406.338,613.138 415.5,614C 424.637,605.864 433.47,597.364 442,588.5C 442.499,584.514 442.666,580.514 442.5,576.5 Z"/></g>
<g><path style="opacity:1" fill="#28383f" d="M 594.5,607.5 C 593.167,606.5 591.833,605.5 590.5,604.5C 586.203,599.702 581.703,595.035 577,590.5C 576.172,585.798 576.338,581.131 577.5,576.5C 578.167,576.167 578.833,575.833 579.5,575.5C 580.328,580.132 580.828,584.798 581,589.5C 589.47,596.969 597.637,604.802 605.5,613C 607.833,613.333 610.167,613.667 612.5,614C 617.798,616.488 618.798,620.155 615.5,625C 606.728,628.547 602.895,625.713 604,616.5C 600.964,613.296 597.797,610.296 594.5,607.5 Z"/></g>
<g><path style="opacity:1" fill="#e0ebee" d="M 608.5,617.5 C 613.159,617.015 614.492,618.848 612.5,623C 607.728,623.81 606.395,621.977 608.5,617.5 Z"/></g>
<g><path style="opacity:1" fill="#dee5ec" d="M 409.5,617.5 C 414.159,617.015 415.492,618.848 413.5,623C 409.266,623.267 407.933,621.434 409.5,617.5 Z"/></g>
<g><path style="opacity:1" fill="#253542" d="M 492.5,655.5 C 488.202,659.296 484.036,663.296 480,667.5C 479.333,675.5 479.333,683.5 480,691.5C 487.555,696.384 488.388,702.218 482.5,709C 472.058,712.224 467.224,708.39 468,697.5C 469.512,694.143 472.012,692.143 475.5,691.5C 475.334,683.16 475.5,674.827 476,666.5C 481.037,661.631 485.87,656.631 490.5,651.5C 491.497,632.341 491.83,613.007 491.5,593.5C 492.5,593.5 493.5,593.5 494.5,593.5C 494.667,613.503 494.5,633.503 494,653.5C 493.283,654.044 492.783,654.711 492.5,655.5 Z"/></g>
<g><path style="opacity:1" fill="#85919a" d="M 505.5,594.5 C 506.498,630.663 506.832,666.996 506.5,703.5C 506.433,704.959 506.766,706.292 507.5,707.5C 505.506,670.181 504.839,632.515 505.5,594.5 Z"/></g>
<g><path style="opacity:1" fill="#24323e" d="M 571.5,653.5 C 565.167,646.833 558.833,640.167 552.5,633.5C 552.5,618.167 552.5,602.833 552.5,587.5C 553.5,587.5 554.5,587.5 555.5,587.5C 555.333,602.504 555.5,617.504 556,632.5C 561.698,638.532 567.698,644.199 574,649.5C 574.442,651.614 573.609,652.948 571.5,653.5 Z"/></g>
<g><path style="opacity:1" fill="#38464e" d="M 468.5,588.5 C 467.174,603.005 467.174,617.672 468.5,632.5C 469.499,617.848 469.833,603.182 469.5,588.5C 470.826,603.672 470.826,619.005 469.5,634.5C 463.348,640.152 457.348,645.985 451.5,652C 450.072,652.579 448.738,652.412 447.5,651.5C 447.328,650.508 447.662,649.842 448.5,649.5C 454.465,644.036 460.298,638.37 466,632.5C 466.167,617.489 466.667,602.489 467.5,587.5C 468.107,587.624 468.44,587.957 468.5,588.5 Z"/></g>
<g><path style="opacity:1" fill="#182739" d="M 468.5,588.5 C 468.833,588.5 469.167,588.5 469.5,588.5C 469.833,603.182 469.499,617.848 468.5,632.5C 467.174,617.672 467.174,603.005 468.5,588.5 Z"/></g>
<g><path style="opacity:1" fill="#e0e7e9" d="M 589.5,639.5 C 594.159,639.015 595.492,640.848 593.5,645C 588.728,645.81 587.395,643.977 589.5,639.5 Z"/></g>
<g><path style="opacity:1" fill="#2a3844" d="M 454.5,583.5 C 455.833,583.5 457.167,583.5 458.5,583.5C 458.667,594.505 458.5,605.505 458,616.5C 451.303,623.532 444.303,630.198 437,636.5C 437.32,639.46 437.32,642.46 437,645.5C 432.162,651.036 427.829,650.703 424,644.5C 422.835,640.316 424.335,637.483 428.5,636C 430.5,635.667 432.5,635.333 434.5,635C 441,628.5 447.5,622 454,615.5C 454.5,604.839 454.667,594.172 454.5,583.5 Z"/></g>
<g><path style="opacity:1" fill="#dee7e9" d="M 428.5,639.5 C 433.159,639.015 434.492,640.848 432.5,645C 427.728,645.81 426.395,643.977 428.5,639.5 Z"/></g>
<g><path style="opacity:1" fill="#2d3b48" d="M 464.5,660.5 C 464.167,660.5 463.833,660.5 463.5,660.5C 463.5,659.5 463.5,658.5 463.5,657.5C 468.13,652.369 472.963,647.369 478,642.5C 478.5,625.503 478.667,608.503 478.5,591.5C 479.833,591.5 481.167,591.5 482.5,591.5C 482.667,608.837 482.5,626.17 482,643.5C 476.271,649.397 470.438,655.064 464.5,660.5 Z"/></g>
<g><path style="opacity:1" fill="#2b3b49" d="M 528.5,593.5 C 529.5,593.5 530.5,593.5 531.5,593.5C 531.333,612.836 531.5,632.17 532,651.5C 536.721,656.221 541.387,660.887 546,665.5C 546.168,674.186 546.668,682.852 547.5,691.5C 554.076,694.042 556.243,698.709 554,705.5C 548.557,711.644 542.89,711.977 537,706.5C 533.809,699.608 535.643,694.608 542.5,691.5C 543.665,683.855 543.831,676.188 543,668.5C 538,663.5 533,658.5 528,653.5C 527.18,633.427 527.346,613.427 528.5,593.5 Z"/></g>
<g><path style="opacity:1" fill="#1e2f3d" d="M 541.5,591.5 C 543.162,608.309 544.162,625.309 544.5,642.5C 550.297,648.798 556.297,654.965 562.5,661C 568.399,659.283 572.399,661.283 574.5,667C 573.131,672.856 569.464,674.856 563.5,673C 561.229,669.925 560.063,666.425 560,662.5C 553.364,656.866 547.031,650.866 541,644.5C 540.171,626.662 540.338,608.995 541.5,591.5 Z"/></g>
<g><path style="opacity:1" fill="#193237" d="M 463.5,657.5 C 463.5,658.5 463.5,659.5 463.5,660.5C 461.86,663.528 461.026,666.861 461,670.5C 456.864,675.719 452.864,675.719 449,670.5C 448.278,667.739 448.445,665.073 449.5,662.5C 452.313,660.471 455.313,660.137 458.5,661.5C 460.186,660.143 461.852,658.81 463.5,657.5 Z"/></g>
<g><path style="opacity:1" fill="#d0dce6" d="M 505.5,594.5 C 504.5,594.5 503.5,594.5 502.5,594.5C 502.832,632.337 502.498,670.004 501.5,707.5C 501.5,668.833 501.5,630.167 501.5,591.5C 502.833,591.5 504.167,591.5 505.5,591.5C 505.5,592.5 505.5,593.5 505.5,594.5 Z"/></g>
<g><path style="opacity:1" fill="#182d40" d="M 505.5,594.5 C 504.839,632.515 505.506,670.181 507.5,707.5C 508.458,707.953 509.292,708.619 510,709.5C 511.591,718.408 508.091,721.408 499.5,718.5C 496.326,714.042 496.992,710.375 501.5,707.5C 502.498,670.004 502.832,632.337 502.5,594.5C 503.5,594.5 504.5,594.5 505.5,594.5 Z"/></g>
<g><path style="opacity:1" fill="#dbe1e4" d="M 564.5,664.5 C 569.123,663.408 570.956,665.075 570,669.5C 565.325,671.334 563.492,669.667 564.5,664.5 Z"/></g>
<g><path style="opacity:1" fill="#d4d6de" d="M 452.5,664.5 C 457.123,663.408 458.956,665.075 458,669.5C 452.42,671.752 450.587,670.085 452.5,664.5 Z"/></g>
<g><path style="opacity:1" fill="#162838" d="M 520.5,707.5 C 526.168,710.354 526.834,714.187 522.5,719C 516.412,722.069 513.079,720.236 512.5,713.5C 511.892,710.019 513.225,708.019 516.5,707.5C 517.167,670.331 517.833,632.998 518.5,595.5C 519.167,632.998 519.833,670.331 520.5,707.5 Z"/></g>
<g><path style="opacity:1" fill="#e2e6e6" d="M 474.5,694.5 C 481.314,694.49 483.814,697.823 482,704.5C 478.667,708.5 475.333,708.5 472,704.5C 470.861,700.579 471.695,697.246 474.5,694.5 Z"/></g>
<g><path style="opacity:1" fill="#dce3e6" d="M 542.5,694.5 C 549.329,693.828 552.163,696.828 551,703.5C 547.645,708.31 543.979,708.644 540,704.5C 538.861,700.579 539.695,697.246 542.5,694.5 Z"/></g>
<g><path style="opacity:1" fill="#dfe5e6" d="M 516.5,710.5 C 521.159,710.015 522.492,711.848 520.5,716C 515.728,716.81 514.395,714.977 516.5,710.5 Z"/></g>
<g><path style="opacity:1" fill="#dee1e5" d="M 502.5,710.5 C 507.159,710.015 508.492,711.848 506.5,716C 501.728,716.81 500.395,714.977 502.5,710.5 Z"/></g>
<g><path style="opacity:1" fill="#1a2f3e" d="M 637.5,826.5 C 628.651,826.826 619.984,826.493 611.5,825.5C 613.266,823.229 615.266,821.063 617.5,819C 624.167,818.667 630.833,818.333 637.5,818C 641.5,815 641.5,812 637.5,809C 631.5,808.667 625.5,808.333 619.5,808C 611.39,803.936 608.557,797.436 611,788.5C 612.892,784.942 615.725,782.442 619.5,781C 628.186,780.168 636.853,780.335 645.5,781.5C 643.476,783.69 641.643,786.023 640,788.5C 633.581,789.313 627.081,789.813 620.5,790C 617.595,793.374 617.928,796.374 621.5,799C 627.914,799.129 634.247,799.796 640.5,801C 648.095,804.473 650.595,810.306 648,818.5C 646.256,823.457 642.756,826.124 637.5,826.5 Z"/></g>
<g><path style="opacity:1" fill="#1b313f" d="M 409.5,780.5 C 418.5,780.5 427.5,780.5 436.5,780.5C 436.5,783.5 436.5,786.5 436.5,789.5C 425.147,789.832 413.814,789.499 402.5,788.5C 404.856,785.814 407.189,783.147 409.5,780.5 Z"/></g>
<g><path style="opacity:1" fill="#6a767f" d="M 341.5,780.5 C 341.5,783.167 341.5,785.833 341.5,788.5C 346.695,788.179 351.695,788.513 356.5,789.5C 351.167,789.5 345.833,789.5 340.5,789.5C 340.19,786.287 340.523,783.287 341.5,780.5 Z"/></g>
<g><path style="opacity:1" fill="#182f3e" d="M 341.5,780.5 C 354.5,780.5 367.5,780.5 380.5,780.5C 380.5,783.167 380.5,785.833 380.5,788.5C 375.167,788.5 369.833,788.5 364.5,788.5C 364.5,801.5 364.5,814.5 364.5,827.5C 361.833,827.5 359.167,827.5 356.5,827.5C 356.5,814.833 356.5,802.167 356.5,789.5C 351.695,788.513 346.695,788.179 341.5,788.5C 341.5,785.833 341.5,783.167 341.5,780.5 Z"/></g>
<g><path style="opacity:1" fill="#1c303f" d="M 681.5,780.5 C 684.247,780.187 686.914,780.52 689.5,781.5C 682.98,796.896 675.98,812.062 668.5,827C 665.446,827.821 662.446,827.655 659.5,826.5C 667.376,811.414 674.71,796.081 681.5,780.5 Z"/></g>
<g><path style="opacity:1" fill="#7a898f" d="M 380.5,788.5 C 375.695,789.487 370.695,789.821 365.5,789.5C 365.829,802.344 365.495,815.011 364.5,827.5C 364.5,814.5 364.5,801.5 364.5,788.5C 369.833,788.5 375.167,788.5 380.5,788.5 Z"/></g>
<g><path style="opacity:1" fill="#192f3d" d="M 314.5,826.5 C 305.318,826.827 296.318,826.493 287.5,825.5C 290.002,823.83 292.002,821.664 293.5,819C 299.833,818.667 306.167,818.333 312.5,818C 315.608,816.06 316.275,813.394 314.5,810C 308.275,808.749 301.942,808.083 295.5,808C 288.242,803.899 285.408,797.733 287,789.5C 291.951,781.089 299.285,778.089 309,780.5C 313.5,780.667 318,780.833 322.5,781C 319.931,783.479 317.598,786.146 315.5,789C 309.5,789.333 303.5,789.667 297.5,790C 294.941,792.925 294.941,795.925 297.5,799C 303.167,799.333 308.833,799.667 314.5,800C 326.374,806.491 327.707,814.824 318.5,825C 317.255,825.791 315.922,826.291 314.5,826.5 Z"/></g>
<g><path style="opacity:1" fill="#5e6a74" d="M 726.5,780.5 C 726.5,795.833 726.5,811.167 726.5,826.5C 728.833,826.5 731.167,826.5 733.5,826.5C 733.5,811.167 733.5,795.833 733.5,780.5C 734.496,795.991 734.83,811.658 734.5,827.5C 731.5,827.5 728.5,827.5 725.5,827.5C 725.17,811.658 725.504,795.991 726.5,780.5 Z"/></g>
<g><path style="opacity:1" fill="#132d3d" d="M 726.5,780.5 C 728.833,780.5 731.167,780.5 733.5,780.5C 733.5,795.833 733.5,811.167 733.5,826.5C 731.167,826.5 728.833,826.5 726.5,826.5C 726.5,811.167 726.5,795.833 726.5,780.5 Z"/></g>
<g><path style="opacity:1" fill="#1d3142" d="M 694.5,788.5 C 701.124,801.022 706.79,814.022 711.5,827.5C 708.5,827.5 705.5,827.5 702.5,827.5C 698.792,817.746 694.792,808.079 690.5,798.5C 691.843,795.15 693.177,791.817 694.5,788.5 Z"/></g>
<g><path style="opacity:1" fill="#1a2e3d" d="M 554.5,780.5 C 557.167,780.5 559.833,780.5 562.5,780.5C 562.333,791.172 562.5,801.839 563,812.5C 567.267,819.876 573.101,821.376 580.5,817C 582.041,815.421 583.208,813.587 584,811.5C 584.5,801.172 584.666,790.839 584.5,780.5C 587.167,780.5 589.833,780.5 592.5,780.5C 592.938,792.576 592.438,804.576 591,816.5C 587.262,824.123 581.096,827.79 572.5,827.5C 564.129,827.309 558.296,823.309 555,815.5C 554.5,803.838 554.333,792.171 554.5,780.5 Z"/></g>
<g><path style="opacity:1" fill="#1d303f" d="M 456.5,780.5 C 459.167,780.5 461.833,780.5 464.5,780.5C 464.046,791.603 464.546,802.603 466,813.5C 467.938,816.106 470.438,817.939 473.5,819C 478.155,819.499 482.821,819.666 487.5,819.5C 487.5,822.167 487.5,824.833 487.5,827.5C 481.491,827.666 475.491,827.499 469.5,827C 463.172,824.518 459.006,820.018 457,813.5C 456.5,802.505 456.333,791.505 456.5,780.5 Z"/></g>
<g><path style="opacity:1" fill="#7a878f" d="M 523.5,818.5 C 528.5,818.5 533.5,818.5 538.5,818.5C 538.81,821.713 538.477,824.713 537.5,827.5C 537.5,824.833 537.5,822.167 537.5,819.5C 532.637,819.819 527.97,819.486 523.5,818.5 Z"/></g>
<g><path style="opacity:1" fill="#172d3c" d="M 414.5,818.5 C 421.313,819.491 428.313,819.825 435.5,819.5C 435.5,821.833 435.5,824.167 435.5,826.5C 427.167,826.5 418.833,826.5 410.5,826.5C 405.239,824.408 401.406,820.741 399,815.5C 398.501,810.177 398.334,804.844 398.5,799.5C 408.167,799.5 417.833,799.5 427.5,799.5C 427.5,802.167 427.5,804.833 427.5,807.5C 420.5,807.5 413.5,807.5 406.5,807.5C 406.104,813.433 408.771,817.099 414.5,818.5 Z"/></g>
<g><path style="opacity:1" fill="#1e3241" d="M 523.5,818.5 C 527.97,819.486 532.637,819.819 537.5,819.5C 537.5,822.167 537.5,824.833 537.5,827.5C 531.491,827.666 525.491,827.499 519.5,827C 512.609,824.377 508.109,819.544 506,812.5C 505.5,801.839 505.333,791.172 505.5,780.5C 508.5,780.5 511.5,780.5 514.5,780.5C 514.334,790.839 514.5,801.172 515,811.5C 516.837,815.181 519.67,817.515 523.5,818.5 Z"/></g>
<g><path style="opacity:1" fill="#56636e" d="M 287.5,825.5 C 296.318,826.493 305.318,826.827 314.5,826.5C 305.325,827.822 295.992,827.822 286.5,826.5C 286.624,825.893 286.957,825.56 287.5,825.5 Z"/></g>
<g><path style="opacity:1" fill="#4d5b63" d="M 414.5,818.5 C 421.833,818.5 429.167,818.5 436.5,818.5C 436.5,821.5 436.5,824.5 436.5,827.5C 427.651,827.826 418.984,827.493 410.5,826.5C 418.833,826.5 427.167,826.5 435.5,826.5C 435.5,824.167 435.5,821.833 435.5,819.5C 428.313,819.825 421.313,819.491 414.5,818.5 Z"/></g>
<g><path style="opacity:1" fill="#515e68" d="M 611.5,825.5 C 619.984,826.493 628.651,826.826 637.5,826.5C 628.658,827.822 619.658,827.822 610.5,826.5C 610.624,825.893 610.957,825.56 611.5,825.5 Z"/></g>
</svg>
